<svg xmlns="http://www.w3.org/2000/svg" viewBox="0 0 15.391 15.05">
  <defs>
    <style>
      .cls-1, .cls-2, .cls-3 {
        fill: #f70;
      }

      .cls-1, .cls-3 {
        fill-rule: evenodd;
      }

      .cls-3 {
        stroke: #f70;
        stroke-width: 0.1px;
      }
    </style>
  </defs>
  <g id="Meeting_-_date_Time" data-name="Meeting - date &amp; Time" transform="translate(-5 -5)">
    <g id="Group_1084" data-name="Group 1084" transform="translate(5 5.852)">
      <g id="Group_1083" data-name="Group 1083" transform="translate(0 0)">
        <g id="Group_1082" data-name="Group 1082">
          <path id="Path_1222" data-name="Path 1222" class="cls-1" d="M15.909,10h-.17v1.278a1.108,1.108,0,1,1-2.216,0V10H12.33v1.278a1.108,1.108,0,0,1-2.216,0V10H8.92v1.278a1.108,1.108,0,0,1-2.216,0V10h-.17A1.613,1.613,0,0,0,5,11.648V21.08a1.682,1.682,0,0,0,1.7,1.534h6.712a3.907,3.907,0,0,1-.39-.852H6.875a1.089,1.089,0,0,1-1.023-1.023V14.091H16.589l0,2.561c.058,0,.116,0,.174,0a3.942,3.942,0,0,1,.682.06v-5A1.665,1.665,0,0,0,15.909,10Z" transform="translate(-5 -10)"/>
        </g>
      </g>
    </g>
    <g id="Group_1087" data-name="Group 1087" transform="translate(7.386 10.795)">
      <g id="Group_1086" data-name="Group 1086">
        <g id="Group_1085" data-name="Group 1085">
          <path id="Path_1223" data-name="Path 1223" class="cls-2" d="M20.534,39H19.511a.511.511,0,0,0-.511.511v.511a.511.511,0,0,0,.511.511h1.023a.511.511,0,0,0,.511-.511v-.511A.511.511,0,0,0,20.534,39Z" transform="translate(-19 -39)"/>
        </g>
      </g>
    </g>
    <g id="Group_1090" data-name="Group 1090" transform="translate(10.284 10.795)">
      <g id="Group_1089" data-name="Group 1089">
        <g id="Group_1088" data-name="Group 1088">
          <path id="Path_1224" data-name="Path 1224" class="cls-2" d="M37.534,39H36.511a.511.511,0,0,0-.511.511v.511a.511.511,0,0,0,.511.511h1.023a.511.511,0,0,0,.511-.511v-.511A.511.511,0,0,0,37.534,39Z" transform="translate(-36 -39)"/>
        </g>
      </g>
    </g>
    <g id="Group_1093" data-name="Group 1093" transform="translate(7.386 13.011)">
      <g id="Group_1092" data-name="Group 1092">
        <g id="Group_1091" data-name="Group 1091">
          <path id="Path_1225" data-name="Path 1225" class="cls-2" d="M20.534,52H19.511a.511.511,0,0,0-.511.511v.511a.511.511,0,0,0,.511.511h1.023a.511.511,0,0,0,.511-.511v-.511A.511.511,0,0,0,20.534,52Z" transform="translate(-19 -52)"/>
        </g>
      </g>
    </g>
    <g id="Group_1096" data-name="Group 1096" transform="translate(10.284 13.011)">
      <g id="Group_1095" data-name="Group 1095">
        <g id="Group_1094" data-name="Group 1094">
          <path id="Path_1226" data-name="Path 1226" class="cls-2" d="M37.534,52H36.511a.511.511,0,0,0-.511.511v.511a.511.511,0,0,0,.511.511h1.023a.511.511,0,0,0,.511-.511v-.511A.511.511,0,0,0,37.534,52Z" transform="translate(-36 -52)"/>
        </g>
      </g>
    </g>
    <g id="Group_1099" data-name="Group 1099" transform="translate(7.386 15.227)">
      <g id="Group_1098" data-name="Group 1098">
        <g id="Group_1097" data-name="Group 1097">
          <path id="Path_1227" data-name="Path 1227" class="cls-2" d="M20.534,65H19.511a.511.511,0,0,0-.511.511v.511a.511.511,0,0,0,.511.511h1.023a.511.511,0,0,0,.511-.511v-.511A.511.511,0,0,0,20.534,65Z" transform="translate(-19 -65)"/>
        </g>
      </g>
    </g>
    <g id="Group_1102" data-name="Group 1102" transform="translate(10.284 15.227)">
      <g id="Group_1101" data-name="Group 1101">
        <g id="Group_1100" data-name="Group 1100">
          <path id="Path_1228" data-name="Path 1228" class="cls-2" d="M37.534,65H36.511a.511.511,0,0,0-.511.511v.511a.511.511,0,0,0,.511.511h1.023a.511.511,0,0,0,.511-.511v-.511A.511.511,0,0,0,37.534,65Z" transform="translate(-36 -65)"/>
        </g>
      </g>
    </g>
    <g id="Group_1105" data-name="Group 1105" transform="translate(13.182 10.795)">
      <g id="Group_1104" data-name="Group 1104" transform="translate(0)">
        <g id="Group_1103" data-name="Group 1103">
          <path id="Path_1229" data-name="Path 1229" class="cls-2" d="M54.534,39H53.511a.511.511,0,0,0-.511.511v.511a.511.511,0,0,0,.511.511h1.023a.511.511,0,0,0,.511-.511v-.511A.511.511,0,0,0,54.534,39Z" transform="translate(-53 -39)"/>
        </g>
      </g>
    </g>
    <g id="Group_1108" data-name="Group 1108" transform="translate(7.045 5)">
      <g id="Group_1107" data-name="Group 1107" transform="translate(0 0)">
        <g id="Group_1106" data-name="Group 1106">
          <path id="Path_1230" data-name="Path 1230" class="cls-2" d="M17.767,5A.767.767,0,0,0,17,5.767V7.131a.767.767,0,0,0,1.534,0V5.767A.767.767,0,0,0,17.767,5Z" transform="translate(-17 -5)"/>
        </g>
      </g>
    </g>
    <g id="Group_1111" data-name="Group 1111" transform="translate(13.864 5)">
      <g id="Group_1110" data-name="Group 1110" transform="translate(0 0)">
        <g id="Group_1109" data-name="Group 1109">
          <path id="Path_1231" data-name="Path 1231" class="cls-2" d="M57.767,5A.767.767,0,0,0,57,5.767V7.131a.767.767,0,0,0,1.534,0V5.767A.767.767,0,0,0,57.767,5Z" transform="translate(-57 -5)"/>
        </g>
      </g>
    </g>
    <g id="Group_1114" data-name="Group 1114" transform="translate(10.455 5)">
      <g id="Group_1113" data-name="Group 1113" transform="translate(0 0)">
        <g id="Group_1112" data-name="Group 1112">
          <path id="Path_1232" data-name="Path 1232" class="cls-2" d="M37.767,5A.767.767,0,0,0,37,5.767V7.131a.767.767,0,0,0,1.534,0V5.767A.767.767,0,0,0,37.767,5Z" transform="translate(-37 -5)"/>
        </g>
      </g>
    </g>
    <g id="Group_1117" data-name="Group 1117" transform="translate(13.183 12.839)">
      <g id="Group_1116" data-name="Group 1116">
        <g id="Group_1115" data-name="Group 1115">
          <path id="Path_1233" data-name="Path 1233" class="cls-3" d="M56.584,50.989a3.58,3.58,0,1,0,3.579,3.581A3.58,3.58,0,0,0,56.584,50.989Zm0,6.65a3.068,3.068,0,1,1,3.068-3.068A3.068,3.068,0,0,1,56.584,57.639Z" transform="translate(-53.005 -50.989)"/>
        </g>
      </g>
    </g>
    <g id="Group_1120" data-name="Group 1120" transform="translate(16.25 14.205)">
      <g id="Group_1119" data-name="Group 1119" transform="translate(0 0)">
        <g id="Group_1118" data-name="Group 1118">
          <path id="Path_1234" data-name="Path 1234" class="cls-2" d="M71.341,59a.341.341,0,0,0-.341.341v2.045a.341.341,0,1,0,.682,0V59.341A.341.341,0,0,0,71.341,59Z" transform="translate(-71 -59)"/>
        </g>
      </g>
    </g>
    <g id="Group_1123" data-name="Group 1123" transform="translate(16.25 16.25)">
      <g id="Group_1122" data-name="Group 1122">
        <g id="Group_1121" data-name="Group 1121">
          <path id="Path_1235" data-name="Path 1235" class="cls-2" d="M73.045,71h-1.7a.341.341,0,1,0,0,.682h1.7a.341.341,0,1,0,0-.682Z" transform="translate(-71 -71)"/>
        </g>
      </g>
    </g>
  </g>
</svg>
