<svg xmlns="http://www.w3.org/2000/svg" viewBox="0 0 72.018 72.018">
  <defs>
    <style>
      .cls-1 {
        fill: #f70;
      }

      .cls-2, .cls-5 {
        fill: none;
      }

      .cls-2 {
        stroke: #f70;
        stroke-width: 2px;
      }

      .cls-3 {
        fill: #fff;
        stroke: #fff;
        stroke-width: 0.7px;
      }

      .cls-4 {
        stroke: none;
      }
    </style>
  </defs>
  <g id="Onboarding_-_CRM" data-name="Onboarding - CRM" transform="translate(-1092 -452.491)">
    <circle id="Ellipse_467" data-name="Ellipse 467" class="cls-1" cx="30.674" cy="30.674" r="30.674" transform="translate(1097.824 457.826)"/>
    <g id="Ellipse_468" data-name="Ellipse 468" class="cls-2" transform="translate(1092 452.491)">
      <circle class="cls-4" cx="36.009" cy="36.009" r="36.009"/>
      <circle class="cls-5" cx="36.009" cy="36.009" r="35.009"/>
    </g>
    <path id="users" class="cls-3" d="M23.367,20.435l-4.058-2a1.1,1.1,0,0,1-.621-.989V16.035c.1-.117.2-.25.305-.4a9.516,9.516,0,0,0,1.255-2.425,1.658,1.658,0,0,0,.988-1.513V10.027a1.653,1.653,0,0,0-.425-1.1V6.705a3.707,3.707,0,0,0-.889-2.729A5.394,5.394,0,0,0,15.716,2.5a5.4,5.4,0,0,0-4.208,1.476,3.6,3.6,0,0,0-.877,2.009,5.589,5.589,0,0,0-2.56-.558c-4.413,0-4.67,3.7-4.672,3.764v1.915a1.445,1.445,0,0,0-.425.974v1.444a1.483,1.483,0,0,0,.557,1.156,6.391,6.391,0,0,0,1.548,2.628v1.147a.907.907,0,0,1-.5.8L1.755,21A3.306,3.306,0,0,0,0,23.912V25.5H25.485V23.809A3.747,3.747,0,0,0,23.367,20.435ZM5.947,23.728v.936H.85v-.751a2.484,2.484,0,0,1,1.334-2.188l2.825-1.745a1.729,1.729,0,0,0,.918-1.523v-1.5l-.135-.124a5.559,5.559,0,0,1-1.473-2.49l-.039-.166-.145-.092a.662.662,0,0,1-.312-.558V12.08a.728.728,0,0,1,.285-.491l.14-.124V9.215c.008-.12.229-2.952,3.824-2.952a4.474,4.474,0,0,1,2.549.687V8.93a1.653,1.653,0,0,0-.425,1.1V11.7a1.657,1.657,0,0,0,.043.373c.011.049.034.093.05.14a1.635,1.635,0,0,0,.075.209v0A1.68,1.68,0,0,0,10.83,13l.007.023c.025.1.052.191.081.284l.034.109c.006.019.013.039.02.058.015.045.029.09.045.134.025.073.052.149.083.231.013.034.028.065.041.1.035.087.07.172.106.256.009.02.017.042.025.061l.024.053c.011.024.023.046.034.07.042.089.082.176.125.26l.02.041c.027.052.054.1.08.152.046.086.091.167.136.246l.065.112c.061.1.119.2.176.285l.036.056c.1.157.192.284.266.383l.053.071.03.041V17.41a1.1,1.1,0,0,1-.585.97l-1.124.6-.2-.017-.08.165-2.39,1.283A3.764,3.764,0,0,0,5.947,23.728Zm18.689.936H6.8v-.936A2.928,2.928,0,0,1,8.35,21.15l3.789-2.035a1.938,1.938,0,0,0,1.028-1.7V15.73h0l-.082-.1-.016-.019s-.027-.033-.07-.088l-.008-.01c-.023-.029-.049-.064-.079-.1v0c-.063-.087-.143-.2-.231-.335l-.006-.009c-.042-.064-.086-.134-.131-.208l-.01-.017c-.1-.158-.2-.338-.3-.537h0c-.054-.107-.108-.219-.161-.335h0l-.022-.049h0c-.023-.052-.047-.107-.071-.164l-.025-.063c-.022-.055-.045-.11-.068-.173-.043-.114-.084-.233-.123-.355l-.023-.074-.008-.026c-.04-.132-.078-.267-.11-.406l-.039-.166-.145-.092a.831.831,0,0,1-.393-.7V10.027a.82.82,0,0,1,.285-.617l.14-.124V6.534l-.011-.009a2.864,2.864,0,0,1,.689-2,4.6,4.6,0,0,1,3.57-1.191,4.616,4.616,0,0,1,3.562,1.183,2.91,2.91,0,0,1,.689,2.108l0,2.659.14.125a.818.818,0,0,1,.285.616V11.7a.833.833,0,0,1-.6.794l-.212.064-.068.207a8.7,8.7,0,0,1-1.2,2.389,5.514,5.514,0,0,1-.356.451l-.106.119v1.725a1.928,1.928,0,0,0,1.09,1.737l4.058,2a2.916,2.916,0,0,1,1.648,2.626Z" transform="translate(1115.838 473.268)"/>
  </g>
</svg>
