<svg xmlns="http://www.w3.org/2000/svg" viewBox="0 0 72.018 72.018">
  <defs>
    <style>
      .cls-1 {
        fill: #f70;
      }

      .cls-2, .cls-6 {
        fill: none;
      }

      .cls-2 {
        stroke: #f70;
        stroke-width: 2px;
      }

      .cls-3, .cls-4 {
        fill: #fff;
      }

      .cls-3 {
        stroke: #fff;
        stroke-width: 0.8px;
      }

      .cls-5 {
        stroke: none;
      }
    </style>
  </defs>
  <g id="Onboarding_-_Ticketing" data-name="Onboarding - Ticketing" transform="translate(-1098 -582.491)">
    <circle id="Ellipse_467" data-name="Ellipse 467" class="cls-1" cx="30.674" cy="30.674" r="30.674" transform="translate(1103.824 587.826)"/>
    <g id="Ellipse_468" data-name="Ellipse 468" class="cls-2" transform="translate(1098 582.491)">
      <circle class="cls-5" cx="36.009" cy="36.009" r="36.009"/>
      <circle class="cls-6" cx="36.009" cy="36.009" r="35.009"/>
    </g>
    <path id="Path_1159" data-name="Path 1159" class="cls-3" d="M24.659,7.3l-.3.3a2.18,2.18,0,0,1-1.844.733,2.908,2.908,0,0,1-3.007-3.007,2.18,2.18,0,0,1,.733-1.844l.3-.3L17.358,0,0,17.358l3.184,3.184.3-.3a2.18,2.18,0,0,1,1.844-.733,2.908,2.908,0,0,1,3.007,3.007,2.18,2.18,0,0,1-.733,1.844l-.3.3,3.184,3.184L27.844,10.486ZM8.5,24.647A2.961,2.961,0,0,0,9.2,22.512a3.781,3.781,0,0,0-3.866-3.866A2.963,2.963,0,0,0,3.2,19.34L1.215,17.358l10.13-10.13,1.414,1.414.607-.607L11.952,6.62l5.406-5.406L19.34,3.2a2.961,2.961,0,0,0-.693,2.135A3.781,3.781,0,0,0,22.512,9.2,2.963,2.963,0,0,0,24.647,8.5l1.982,1.982-5.406,5.406-1.414-1.414-.607.607L20.616,16.5l-10.13,10.13Z" transform="translate(1133.678 599) rotate(45)"/>
    <path id="Path_1160" data-name="Path 1160" class="cls-4" d="M33.425,23.033l-1.718-1.718.607-.607,1.718,1.718Z" transform="translate(1129.241 577.856) rotate(45)"/>
    <path id="Path_1161" data-name="Path 1161" class="cls-4" d="M40.425,30.033l-1.718-1.718.607-.607,1.718,1.718Z" transform="translate(1129.241 572.208) rotate(45)"/>
  </g>
</svg>
