<svg xmlns="http://www.w3.org/2000/svg" viewBox="0 0 72.018 72.018">
  <defs>
    <style>
      .cls-1 {
        fill: #f70;
      }

      .cls-2, .cls-5 {
        fill: none;
      }

      .cls-2 {
        stroke: #f70;
        stroke-width: 2px;
      }

      .cls-3 {
        fill: #fff;
        stroke: #fff;
        stroke-width: 0.2px;
      }

      .cls-4 {
        stroke: none;
      }
    </style>
  </defs>
  <g id="Onboarding_-_Audit" data-name="Onboarding - Audit" transform="translate(-1222 -582.491)">
    <circle id="Ellipse_467" data-name="Ellipse 467" class="cls-1" cx="30.674" cy="30.674" r="30.674" transform="translate(1227.824 587.826)"/>
    <g id="Ellipse_468" data-name="Ellipse 468" class="cls-2" transform="translate(1222 582.491)">
      <circle class="cls-4" cx="36.009" cy="36.009" r="36.009"/>
      <circle class="cls-5" cx="36.009" cy="36.009" r="35.009"/>
    </g>
    <path id="Path_335" data-name="Path 335" class="cls-3" d="M14.169,957.7a8.63,8.63,0,0,0-6.185,2.567,8.743,8.743,0,0,0,11.494,13.128l1.313,1.284-.2.2a.59.59,0,0,0,0,.817l7.847,7.847a.621.621,0,0,0,.817,0l2.071-2.071a.621.621,0,0,0,0-.817l-7.847-7.847a.621.621,0,0,0-.817,0l-.2.2L21.171,971.7a8.763,8.763,0,0,0-.758-11.494,9.107,9.107,0,0,0-6.243-2.509Zm0,1.167A7.585,7.585,0,1,1,8.8,961.084,7.577,7.577,0,0,1,14.169,958.867Zm0,3.209a.585.585,0,0,0-.583.583v.35a2.519,2.519,0,0,0-1.021.467,1.953,1.953,0,0,0-.729,1.517,1.706,1.706,0,0,0,.817,1.459,7.463,7.463,0,0,0,1.284.525c.525.2,1.371.408,1.4.933a.733.733,0,0,1-.292.613,1.485,1.485,0,0,1-.875.263,1.511,1.511,0,0,1-1.254-.7.636.636,0,0,0-.817-.2.628.628,0,0,0-.2.817,2.685,2.685,0,0,0,1.663,1.2v.379a.583.583,0,0,0,1.167,0v-.35a2.518,2.518,0,0,0,1.021-.467,1.953,1.953,0,0,0,.729-1.517,1.705,1.705,0,0,0-.817-1.458,7.448,7.448,0,0,0-1.284-.525c-.525-.2-1.371-.408-1.4-.9a.7.7,0,0,1,.292-.613,1.484,1.484,0,0,1,.875-.263,1.565,1.565,0,0,1,1.254.671.6.6,0,0,0,1.021-.613,2.65,2.65,0,0,0-1.663-1.167v-.379A.592.592,0,0,0,14.169,962.076Zm8.868,12.019,7,7-1.254,1.254-7-7,1.254-1.255Z" transform="translate(1239.574 -351.7)"/>
  </g>
</svg>
