<svg xmlns="http://www.w3.org/2000/svg" viewBox="0 0 72.018 72.018">
  <defs>
    <style>
      .cls-1 {
        fill: #f70;
      }

      .cls-2, .cls-5 {
        fill: none;
      }

      .cls-2 {
        stroke: #f70;
        stroke-width: 2px;
      }

      .cls-3 {
        fill: #fff;
        stroke: #fff;
        stroke-width: 0.4px;
        fill-rule: evenodd;
      }

      .cls-4 {
        stroke: none;
      }
    </style>
  </defs>
  <g id="Onboarding_-_Dashboard" data-name="Onboarding - Dashboard" transform="translate(-965 -452.491)">
    <circle id="Ellipse_467" data-name="Ellipse 467" class="cls-1" cx="30.674" cy="30.674" r="30.674" transform="translate(970.824 457.826)"/>
    <g id="Ellipse_468" data-name="Ellipse 468" class="cls-2" transform="translate(965 452.491)">
      <circle class="cls-4" cx="36.009" cy="36.009" r="36.009"/>
      <circle class="cls-5" cx="36.009" cy="36.009" r="35.009"/>
    </g>
    <g id="Group_1078" data-name="Group 1078" transform="translate(986.457 477.285)">
      <g id="Group_1077" data-name="Group 1077" transform="translate(0 0)">
        <path id="Path_1214" data-name="Path 1214" class="cls-3" d="M25.544,25A15.783,15.783,0,0,0,10,40.978a.777.777,0,1,0,1.554,0A14.227,14.227,0,0,1,25.544,26.554,14.227,14.227,0,0,1,39.533,40.978a.777.777,0,1,0,1.554,0A15.783,15.783,0,0,0,25.544,25" transform="translate(-10 -25)"/>
        <path id="Path_1215" data-name="Path 1215" class="cls-3" d="M45.535,55.3a2.332,2.332,0,1,1-3.3-3.3c.817-.817,4.3-2.484,6.878-3.581-1.1,2.582-2.763,6.06-3.581,6.879m4.716-8.865a2.656,2.656,0,0,0-1.029.257s-6.567,2.693-8.084,4.211a3.886,3.886,0,0,0,5.5,5.5c1.517-1.517,4.211-8.084,4.211-8.084.506-1.173.23-1.88-.594-1.88" transform="translate(-28.342 -38.103)"/>
        <path id="Path_1216" data-name="Path 1216" class="cls-3" d="M17.555,64h-.779a.777.777,0,0,0,0,1.554h.779a.777.777,0,0,0,0-1.554" transform="translate(-13.668 -48.845)"/>
        <path id="Path_1217" data-name="Path 1217" class="cls-3" d="M79.555,64h-.779a.777.777,0,0,0,0,1.554h.779a.777.777,0,0,0,0-1.554" transform="translate(-51.576 -48.845)"/>
        <path id="Path_1218" data-name="Path 1218" class="cls-3" d="M49.554,33.555v-.779a.777.777,0,0,0-1.554,0v.779a.777.777,0,0,0,1.554,0" transform="translate(-33.234 -29.28)"/>
        <path id="Path_1219" data-name="Path 1219" class="cls-3" d="M26.7,41.6a.777.777,0,0,0-1.1,1.1l.551.551a.777.777,0,0,0,1.1-1.1Z" transform="translate(-19.398 -35.011)"/>
        <path id="Path_1220" data-name="Path 1220" class="cls-3" d="M69.991,41.6l-.551.551a.777.777,0,0,0,1.1,1.1l.551-.551a.777.777,0,0,0-1.1-1.1" transform="translate(-46.204 -35.009)"/>
      </g>
    </g>
  </g>
</svg>
