<svg xmlns="http://www.w3.org/2000/svg" viewBox="0 0 125 125">
  <defs>
    <style>
      .cls-1 {
        fill: none;
      }

      .cls-2, .cls-4 {
        fill: #f70;
      }

      .cls-3, .cls-4 {
        stroke: none;
      }
    </style>
  </defs>
  <g id="Franchisee_application_form_submitted" data-name="Franchisee/application form submitted" transform="translate(-7218.578 -2511)">
    <g id="Group_757" data-name="Group 757" transform="translate(7218.578 2510.578)">
      <g id="Path_398" data-name="Path 398" class="cls-1" transform="translate(0 0.422)">
        <path class="cls-3" d="M62.5,0A62.5,62.5,0,1,1,0,62.5,62.5,62.5,0,0,1,62.5,0Z"/>
        <path class="cls-4" d="M 62.5 122 C 70.53376007080078 122 78.32563781738281 120.4272537231445 85.65916442871094 117.3254165649414 C 89.18414306640625 115.8344879150391 92.58419799804688 113.9889602661133 95.76493072509766 111.8401107788086 C 98.91619873046875 109.7111663818359 101.8796157836914 107.2660903930664 104.5728530883789 104.5728530883789 C 107.2660903930664 101.8796157836914 109.7111663818359 98.91619873046875 111.8401107788086 95.76493072509766 C 113.9889602661133 92.58419799804688 115.8344879150391 89.18414306640625 117.3254165649414 85.65916442871094 C 120.4272537231445 78.32563781738281 122 70.53376007080078 122 62.5 C 122 54.46623611450195 120.4272537231445 46.67436218261719 117.3254165649414 39.34083557128906 C 115.8344879150391 35.81587219238281 113.9889602661133 32.41579818725586 111.8401107788086 29.2350902557373 C 109.7111663818359 26.08381843566895 107.2660903930664 23.12039947509766 104.5728530883789 20.42714500427246 C 101.8796157836914 17.73390960693359 98.91619873046875 15.28885459899902 95.76493072509766 13.15989112854004 C 92.58419799804688 11.01103591918945 89.18414306640625 9.165509223937988 85.65916442871094 7.674582004547119 C 78.32563781738281 4.572745323181152 70.53376007080078 3 62.5 3 C 54.46623611450195 3 46.67436218261719 4.572745323181152 39.34083557128906 7.674582004547119 C 35.81587219238281 9.165509223937988 32.41579818725586 11.01103591918945 29.2350902557373 13.15989112854004 C 26.08381843566895 15.28885459899902 23.12039947509766 17.73390960693359 20.42714500427246 20.42714500427246 C 17.73390960693359 23.12039947509766 15.28885459899902 26.08381843566895 13.15989112854004 29.2350902557373 C 11.01103591918945 32.41579818725586 9.165509223937988 35.81587219238281 7.674582004547119 39.34083557128906 C 4.572745323181152 46.67436218261719 3 54.46623611450195 3 62.5 C 3 70.53376007080078 4.572745323181152 78.32563781738281 7.674582004547119 85.65916442871094 C 9.165509223937988 89.18414306640625 11.01103591918945 92.58419799804688 13.15989112854004 95.76493072509766 C 15.28885459899902 98.91619873046875 17.73390960693359 101.8796157836914 20.42714500427246 104.5728530883789 C 23.12039947509766 107.2660903930664 26.08381843566895 109.7111663818359 29.2350902557373 111.8401107788086 C 32.41579818725586 113.9889602661133 35.81587219238281 115.8344879150391 39.34083557128906 117.3254165649414 C 46.67436218261719 120.4272537231445 54.46623611450195 122 62.5 122 M 62.5 125 C 27.98221778869629 125 0 97.01779937744141 0 62.5 C 0 27.98221778869629 27.98221778869629 0 62.5 0 C 97.01779937744141 0 125 27.98221778869629 125 62.5 C 125 97.01779937744141 97.01779937744141 125 62.5 125 Z"/>
      </g>
    </g>
    <g id="Btn_Large_Save_Tick" data-name="Btn/Large/Save Tick" transform="translate(7257.578 2557)">
      <path id="Path" class="cls-2" d="M64.739,28.78a2.23,2.23,0,0,0-3.123,0L35.149,55.248,21.915,42.014a2.23,2.23,0,1,0-3.123,3.123l14.8,14.869a2.23,2.23,0,0,0,3.123,0L64.739,31.977a2.23,2.23,0,0,0,0-3.2Z" transform="translate(-17.9 -28.142)"/>
    </g>
  </g>
</svg>
