<svg xmlns="http://www.w3.org/2000/svg" viewBox="0 0 122.029 122.029">
  <defs>
    <style>
      .cls-1 {
        fill: none;
      }

      .cls-2, .cls-4 {
        fill: #f70;
      }

      .cls-3, .cls-4 {
        stroke: none;
      }
    </style>
  </defs>
  <g id="application_form_empty" data-name="application form empty" transform="translate(0 -0.422)">
    <g id="Path_398" data-name="Path 398" class="cls-1" transform="translate(0 0.422)">
      <path class="cls-3" d="M61.014,0A61.014,61.014,0,1,1,0,61.014,61.014,61.014,0,0,1,61.014,0Z"/>
      <path class="cls-4" d="M 61.01448440551758 119.0289764404297 C 68.84770202636719 119.0289764404297 76.44503021240234 117.4955062866211 83.59541320800781 114.4711380004883 C 87.03237152099609 113.0174331665039 90.34754180908203 111.2179946899414 93.44884490966797 109.1227951049805 C 96.52144622802734 107.0469741821289 99.41090393066406 104.6629409790039 102.0369186401367 102.0369186401367 C 104.6629409790039 99.41090393066406 107.0469741821289 96.52144622802734 109.1227951049805 93.44884490966797 C 111.2179946899414 90.34754180908203 113.0174331665039 87.03237152099609 114.4711380004883 83.59541320800781 C 117.4955062866211 76.44503021240234 119.0289764404297 68.84770202636719 119.0289764404297 61.01448440551758 C 119.0289764404297 53.18126678466797 117.4955062866211 45.58393859863281 114.4711380004883 38.43355560302734 C 113.0174331665039 34.9965934753418 111.2179946899414 31.68142890930176 109.1227951049805 28.58012008666992 C 107.0469741821289 25.50752067565918 104.6629409790039 22.61806678771973 102.0369186401367 19.9920482635498 C 99.41090393066406 17.36602973937988 96.52144622802734 14.98199367523193 93.44884490966797 12.90617561340332 C 90.34754180908203 10.81097507476807 87.03237152099609 9.011538505554199 83.59541320800781 7.557829856872559 C 76.44503021240234 4.533466339111328 68.84770202636719 2.999993562698364 61.01448440551758 2.999993562698364 C 53.18126678466797 2.999993562698364 45.58393859863281 4.533466339111328 38.43355560302734 7.557829856872559 C 34.9965934753418 9.011538505554199 31.68142890930176 10.81097507476807 28.58012008666992 12.90617561340332 C 25.50752067565918 14.98199367523193 22.61806678771973 17.36602973937988 19.9920482635498 19.9920482635498 C 17.36602973937988 22.61806678771973 14.98199367523193 25.50752067565918 12.90617561340332 28.58012008666992 C 10.81097507476807 31.68142890930176 9.011538505554199 34.9965934753418 7.557829856872559 38.43355560302734 C 4.533466339111328 45.58393859863281 2.999993562698364 53.18126678466797 2.999993562698364 61.01448440551758 C 2.999993562698364 68.84770202636719 4.533466339111328 76.44503021240234 7.557829856872559 83.59541320800781 C 9.011538505554199 87.03237152099609 10.81097507476807 90.34754180908203 12.90617561340332 93.44884490966797 C 14.98199367523193 96.52144622802734 17.36602973937988 99.41090393066406 19.9920482635498 102.0369186401367 C 22.61806678771973 104.6629409790039 25.50752067565918 107.0469741821289 28.58012008666992 109.1227951049805 C 31.68142890930176 111.2179946899414 34.9965934753418 113.0174331665039 38.43355560302734 114.4711380004883 C 45.58393859863281 117.4955062866211 53.18126678466797 119.0289764404297 61.01448440551758 119.0289764404297 M 61.01448440551758 122.0289764404297 C 27.3171215057373 122.0289764404297 -6.503573331428925e-06 94.71184539794922 -6.503573331428925e-06 61.01448440551758 C -6.503573331428925e-06 27.3171215057373 27.3171215057373 -6.503573331428925e-06 61.01448440551758 -6.503573331428925e-06 C 94.71184539794922 -6.503573331428925e-06 122.0289764404297 27.3171215057373 122.0289764404297 61.01448440551758 C 122.0289764404297 94.71184539794922 94.71184539794922 122.0289764404297 61.01448440551758 122.0289764404297 Z"/>
    </g>
    <g id="noun_241311_cc" transform="translate(37.832 33.923)">
      <g id="Group_786" data-name="Group 786" transform="translate(0.5 0.5)">
        <g id="Group_782" data-name="Group 782" transform="translate(0 7.297)">
          <path id="Path_509" data-name="Path 509" class="cls-2" d="M41.89,53.193H2.78A2.287,2.287,0,0,1,.5,50.912V9.18A2.287,2.287,0,0,1,2.78,6.9h9.236a2.28,2.28,0,0,1,0,4.561H4.947V48.746H39.723V11.461h-7.3a2.28,2.28,0,0,1,0-4.561H41.89a2.287,2.287,0,0,1,2.28,2.28V50.912A2.287,2.287,0,0,1,41.89,53.193Z" transform="translate(-0.5 -6.9)"/>
        </g>
        <g id="Group_783" data-name="Group 783" transform="translate(10.107 3.193)">
          <path id="Path_510" data-name="Path 510" class="cls-2" d="M30.613,16.184H11.571a2.229,2.229,0,0,1-1.71-.8,2.384,2.384,0,0,1-.456-1.938L11.343,5.01A2.2,2.2,0,0,1,13.51,3.3H28.675a2.2,2.2,0,0,1,2.166,1.71l1.824,8.1a1.94,1.94,0,0,1,.114.8A2.267,2.267,0,0,1,30.613,16.184ZM14.422,11.738h13.34L26.85,7.747H15.334Z" transform="translate(-9.364 -3.3)"/>
        </g>
        <g id="Group_784" data-name="Group 784" transform="translate(19.498)">
          <path id="Path_511" data-name="Path 511" class="cls-2" d="M19.88,8.139a2.287,2.287,0,0,1-2.28-2.28V2.78a2.28,2.28,0,0,1,4.561,0V5.859A2.287,2.287,0,0,1,19.88,8.139Z" transform="translate(-17.6 -0.5)"/>
        </g>
        <g id="Group_785" data-name="Group 785" transform="translate(25.941 21.778)">
          <path id="Path_512" data-name="Path 512" class="cls-2" d="M29.464,36.817H29.35a2.165,2.165,0,0,1-1.71-.912l-3.991-5.473a2.2,2.2,0,1,1,3.535-2.622l2.394,3.307C33.455,27.353,42.12,19.6,48.619,19.6a2.28,2.28,0,0,1,0,4.561c-4.675,0-13.34,7.411-17.673,11.972A1.839,1.839,0,0,1,29.464,36.817Z" transform="translate(-23.251 -19.6)"/>
        </g>
      </g>
    </g>
  </g>
</svg>
