<svg xmlns="http://www.w3.org/2000/svg" viewBox="0 0 125 125">
  <defs>
    <style>
      .cls-1 {
        fill: none;
      }

      .cls-2, .cls-3, .cls-5 {
        fill: #f70;
      }

      .cls-3 {
        stroke: #f70;
      }

      .cls-4, .cls-5 {
        stroke: none;
      }
    </style>
  </defs>
  <g id="Franchisee_interview_empty_state" data-name="Franchisee/ interview/ empty state" transform="translate(20363 12282)">
    <g id="Group_1057" data-name="Group 1057" transform="translate(-27581.578 -14793)">
      <g id="Group_757" data-name="Group 757" transform="translate(7218.578 2510.578)">
        <g id="Path_398" data-name="Path 398" class="cls-1" transform="translate(0 0.422)">
          <path class="cls-4" d="M62.5,0A62.5,62.5,0,1,1,0,62.5,62.5,62.5,0,0,1,62.5,0Z"/>
          <path class="cls-5" d="M 62.5 122 C 70.53376007080078 122 78.32563781738281 120.4272537231445 85.65916442871094 117.3254165649414 C 89.18414306640625 115.8344879150391 92.58419799804688 113.9889602661133 95.76493072509766 111.8401107788086 C 98.91619873046875 109.7111663818359 101.8796157836914 107.2660903930664 104.5728530883789 104.5728530883789 C 107.2660903930664 101.8796157836914 109.7111663818359 98.91619873046875 111.8401107788086 95.76493072509766 C 113.9889602661133 92.58419799804688 115.8344879150391 89.18414306640625 117.3254165649414 85.65916442871094 C 120.4272537231445 78.32563781738281 122 70.53376007080078 122 62.5 C 122 54.46623611450195 120.4272537231445 46.67436218261719 117.3254165649414 39.34083557128906 C 115.8344879150391 35.81587219238281 113.9889602661133 32.41579818725586 111.8401107788086 29.2350902557373 C 109.7111663818359 26.08381843566895 107.2660903930664 23.12039947509766 104.5728530883789 20.42714500427246 C 101.8796157836914 17.73390960693359 98.91619873046875 15.28885459899902 95.76493072509766 13.15989112854004 C 92.58419799804688 11.01103591918945 89.18414306640625 9.165509223937988 85.65916442871094 7.674582004547119 C 78.32563781738281 4.572745323181152 70.53376007080078 3 62.5 3 C 54.46623611450195 3 46.67436218261719 4.572745323181152 39.34083557128906 7.674582004547119 C 35.81587219238281 9.165509223937988 32.41579818725586 11.01103591918945 29.2350902557373 13.15989112854004 C 26.08381843566895 15.28885459899902 23.12039947509766 17.73390960693359 20.42714500427246 20.42714500427246 C 17.73390960693359 23.12039947509766 15.28885459899902 26.08381843566895 13.15989112854004 29.2350902557373 C 11.01103591918945 32.41579818725586 9.165509223937988 35.81587219238281 7.674582004547119 39.34083557128906 C 4.572745323181152 46.67436218261719 3 54.46623611450195 3 62.5 C 3 70.53376007080078 4.572745323181152 78.32563781738281 7.674582004547119 85.65916442871094 C 9.165509223937988 89.18414306640625 11.01103591918945 92.58419799804688 13.15989112854004 95.76493072509766 C 15.28885459899902 98.91619873046875 17.73390960693359 101.8796157836914 20.42714500427246 104.5728530883789 C 23.12039947509766 107.2660903930664 26.08381843566895 109.7111663818359 29.2350902557373 111.8401107788086 C 32.41579818725586 113.9889602661133 35.81587219238281 115.8344879150391 39.34083557128906 117.3254165649414 C 46.67436218261719 120.4272537231445 54.46623611450195 122 62.5 122 M 62.5 125 C 27.98221778869629 125 0 97.01779937744141 0 62.5 C 0 27.98221778869629 27.98221778869629 0 62.5 0 C 97.01779937744141 0 125 27.98221778869629 125 62.5 C 125 97.01779937744141 97.01779937744141 125 62.5 125 Z"/>
        </g>
      </g>
    </g>
    <g id="noun_413985_cc" transform="translate(-20184.004 -12224.337)">
      <g id="Group_1058" data-name="Group 1058" transform="translate(-138 -23)">
        <path id="Path_1199" data-name="Path 1199" class="cls-2" d="M21.867,52.3a8.387,8.387,0,0,0,8.387-8.387H21.867V35.527a8.387,8.387,0,1,0,0,16.774ZM20.033,37.622v8.125h8.125a6.553,6.553,0,1,1-8.125-8.125Z" transform="translate(-8.456 -2.956)"/>
        <rect id="Rectangle_1919" data-name="Rectangle 1919" class="cls-2" width="1.284" height="2.95" transform="translate(25.666 45.034)"/>
        <rect id="Rectangle_1920" data-name="Rectangle 1920" class="cls-2" width="1.284" height="9.8" transform="translate(28.254 38.184)"/>
        <rect id="Rectangle_1921" data-name="Rectangle 1921" class="cls-2" width="1.284" height="14.78" transform="translate(30.843 33.204)"/>
        <rect id="Rectangle_1922" data-name="Rectangle 1922" class="cls-2" width="1.284" height="10.112" transform="translate(33.431 37.872)"/>
        <rect id="Rectangle_1923" data-name="Rectangle 1923" class="cls-2" width="1.284" height="5.353" transform="translate(36.019 42.631)"/>
        <path id="Path_1200" data-name="Path 1200" class="cls-2" d="M23.6,42.937h8.387A8.387,8.387,0,0,0,23.6,34.55Z" transform="translate(-9.299 -2.875)"/>
        <path id="Path_1201" data-name="Path 1201" class="cls-2" d="M18.141,26.337a2.894,2.894,0,0,0,1.917-5.072L24.9,15.318a2.873,2.873,0,0,0,3.38.074l4.435,5.826a2.9,2.9,0,1,0,3.776.047l4.842-5.947a2.966,2.966,0,1,0-.84-1l-5.151,6.326a2.625,2.625,0,0,0-1.468-.021l-4.721-6.2A2.871,2.871,0,0,0,29.54,13a2.9,2.9,0,1,0-5.809,0,2.871,2.871,0,0,0,.329,1.317L18.91,20.644a2.866,2.866,0,0,0-.767-.116,2.9,2.9,0,0,0,0,5.809Z" transform="translate(-8.602 -0.84)"/>
        <path id="Path_1202" data-name="Path 1202" class="cls-3" d="M12.372,58.674H47.634A4.372,4.372,0,0,0,52.006,54.3V4.372A4.372,4.372,0,0,0,47.634,0H12.372A4.372,4.372,0,0,0,8,4.372V54.3A4.372,4.372,0,0,0,12.372,58.674ZM9.284,4.372a3.092,3.092,0,0,1,3.089-3.089H47.634a3.092,3.092,0,0,1,3.089,3.089V54.3a3.092,3.092,0,0,1-3.089,3.089H12.372A3.092,3.092,0,0,1,9.284,54.3Z" transform="translate(-8)"/>
      </g>
    </g>
  </g>
</svg>
