<svg xmlns="http://www.w3.org/2000/svg" viewBox="0 0 13.588 15">
  <defs>
    <style>
      .cls-1 {
        fill: #6d6d6d;
      }
    </style>
  </defs>
  <g id="attach_file_grey_" data-name="attach file (grey)" transform="translate(-76.319 -63.613)">
    <g id="Group_959" data-name="Group 959" transform="translate(76.319 63.614)">
      <path id="Path_1150" data-name="Path 1150" class="cls-1" d="M31.444,969.157a3.719,3.719,0,0,1,0,5.258L23.557,982.3a2.624,2.624,0,0,1-3.711-3.711l7.887-7.887a1.531,1.531,0,1,1,2.165,2.165l-6.8,6.8a.437.437,0,1,1-.619-.619l6.8-6.8a.656.656,0,0,0-.928-.928l-7.887,7.887a1.75,1.75,0,0,0,2.474,2.474l7.887-7.887a2.843,2.843,0,1,0-4.021-4.021l-7.114,7.113a.437.437,0,1,1-.619-.619l7.114-7.114a3.719,3.719,0,0,1,5.258,0Z" transform="translate(-18.945 -968.068)"/>
    </g>
  </g>
</svg>
