<svg xmlns="http://www.w3.org/2000/svg" viewBox="-16308.175 -17141.324 49.104 57.545">
  <defs>
    <style>
      .cls-1 {
        opacity: 0.64;
      }

      .cls-2 {
        stroke: #fff;
      }
    </style>
  </defs>
  <g id="avatar" class="cls-1" transform="translate(-16343.744 -17140.824)">
    <g id="Group_389" data-name="Group 389" transform="translate(36.073)">
      <path id="Path_406" data-name="Path 406" class="cls-2" d="M149.1,30.468h.375a10.805,10.805,0,0,0,8.255-3.571c4.508-5.082,3.759-13.794,3.677-14.625-.293-6.241-3.244-9.227-5.679-10.621A13.019,13.019,0,0,0,149.426,0h-.2a13.039,13.039,0,0,0-6.3,1.6C140.468,3,137.47,5.984,137.177,12.272c-.082.831-.831,9.543,3.677,14.625A10.762,10.762,0,0,0,149.1,30.468Zm-8.794-17.9c0-.035.012-.07.012-.094.386-8.4,6.347-9.3,8.9-9.3h.141c3.162.07,8.536,1.358,8.9,9.3a.229.229,0,0,0,.012.094c.012.082.831,8.044-2.892,12.237a7.675,7.675,0,0,1-6.03,2.506h-.117a7.65,7.65,0,0,1-6.019-2.506C139.5,20.632,140.292,12.635,140.3,12.564Z" transform="translate(-125.254)"/>
      <path id="Path_407" data-name="Path 407" class="cls-2" d="M84.167,273.806v-.035c0-.094-.012-.187-.012-.293-.07-2.318-.222-7.74-5.3-9.473-.035-.012-.082-.023-.117-.035a33.787,33.787,0,0,1-9.719-4.426,1.58,1.58,0,0,0-1.815,2.588,36.469,36.469,0,0,0,10.691,4.883c2.728.972,3.033,3.888,3.115,6.557a2.351,2.351,0,0,0,.012.293,21.254,21.254,0,0,1-.246,3.618c-1.9,1.077-9.333,4.8-20.644,4.8-11.265,0-18.747-3.735-20.656-4.813a20.121,20.121,0,0,1-.246-3.618c0-.094.012-.187.012-.293.082-2.67.386-5.585,3.115-6.557a36.811,36.811,0,0,0,10.691-4.883,1.58,1.58,0,1,0-1.815-2.588,33.42,33.42,0,0,1-9.719,4.426c-.047.012-.082.023-.117.035-5.082,1.745-5.234,7.166-5.3,9.473a2.35,2.35,0,0,1-.012.293v.035a17.956,17.956,0,0,0,.6,5.3,1.5,1.5,0,0,0,.609.738c.351.234,8.77,5.6,22.857,5.6s22.506-5.375,22.857-5.6a1.567,1.567,0,0,0,.609-.738A18.839,18.839,0,0,0,84.167,273.806Z" transform="translate(-36.073 -228.888)"/>
    </g>
  </g>
</svg>
