<svg xmlns="http://www.w3.org/2000/svg" viewBox="-14326 -13688 26 26">
  <defs>
    <style>
      .cls-1 {
        fill: #fff;
      }
    </style>
  </defs>
  <g id="Group_2" data-name="Group 2" transform="translate(-14633 -14144)">
    <path id="Path_211" data-name="Path 211" class="cls-1" d="M19.231,2.325A2.255,2.255,0,0,0,17.034.5a.456.456,0,0,0,0,.912,1.369,1.369,0,0,1,0,2.737.456.456,0,0,0,0,.912,2.256,2.256,0,0,0,2.2-1.825H25.1V7.342H.9V3.237H8.517a.456.456,0,0,0,0-.912H7.7a1.344,1.344,0,0,1,1.262-.912,1.369,1.369,0,0,1,0,2.737.456.456,0,0,0,0,.912,2.264,2.264,0,0,0,2.241-2.281,2.238,2.238,0,0,0-4.437-.456H0V26.5H26V2.325ZM25.1,25.588H.9V8.254H25.1Z" transform="translate(307 455.5)"/>
    <path id="Path_212" data-name="Path 212" class="cls-1" d="M25.448,1.412a1.369,1.369,0,0,1,0,2.737.456.456,0,0,0,0,.912A2.264,2.264,0,0,0,27.69,2.781,2.264,2.264,0,0,0,25.448.5a.456.456,0,0,0,0,.912Z" transform="translate(293.207 455.5)"/>
    <path id="Path_213" data-name="Path 213" class="cls-1" d="M31.448,1.412a1.369,1.369,0,0,1,0,2.737.456.456,0,0,0,0,.912A2.264,2.264,0,0,0,33.69,2.781,2.264,2.264,0,0,0,31.448.5a.456.456,0,0,0,0,.912Z" transform="translate(289.897 455.5)"/>
    <ellipse id="Ellipse_1" data-name="Ellipse 1" class="cls-1" cx="0.448" cy="0.456" rx="0.448" ry="0.456" transform="translate(316.414 466.491)"/>
    <ellipse id="Ellipse_2" data-name="Ellipse 2" class="cls-1" cx="0.448" cy="0.456" rx="0.448" ry="0.456" transform="translate(319.552 466.491)"/>
    <ellipse id="Ellipse_3" data-name="Ellipse 3" class="cls-1" cx="0.448" cy="0.456" rx="0.448" ry="0.456" transform="translate(322.69 466.491)"/>
    <ellipse id="Ellipse_4" data-name="Ellipse 4" class="cls-1" cx="0.448" cy="0.456" rx="0.448" ry="0.456" transform="translate(325.828 466.491)"/>
    <ellipse id="Ellipse_5" data-name="Ellipse 5" class="cls-1" cx="0.448" cy="0.456" rx="0.448" ry="0.456" transform="translate(328.966 466.491)"/>
    <ellipse id="Ellipse_6" data-name="Ellipse 6" class="cls-1" cx="0.448" cy="0.456" rx="0.448" ry="0.456" transform="translate(310.138 470.14)"/>
    <ellipse id="Ellipse_7" data-name="Ellipse 7" class="cls-1" cx="0.448" cy="0.456" rx="0.448" ry="0.456" transform="translate(313.276 470.14)"/>
    <ellipse id="Ellipse_8" data-name="Ellipse 8" class="cls-1" cx="0.448" cy="0.456" rx="0.448" ry="0.456" transform="translate(316.414 470.14)"/>
    <ellipse id="Ellipse_9" data-name="Ellipse 9" class="cls-1" cx="0.448" cy="0.456" rx="0.448" ry="0.456" transform="translate(319.552 470.14)"/>
    <ellipse id="Ellipse_10" data-name="Ellipse 10" class="cls-1" cx="0.448" cy="0.456" rx="0.448" ry="0.456" transform="translate(322.69 470.14)"/>
    <ellipse id="Ellipse_11" data-name="Ellipse 11" class="cls-1" cx="0.448" cy="0.456" rx="0.448" ry="0.456" transform="translate(325.828 470.14)"/>
    <ellipse id="Ellipse_12" data-name="Ellipse 12" class="cls-1" cx="0.448" cy="0.456" rx="0.448" ry="0.456" transform="translate(328.966 470.14)"/>
    <ellipse id="Ellipse_13" data-name="Ellipse 13" class="cls-1" cx="0.448" cy="0.456" rx="0.448" ry="0.456" transform="translate(310.138 473.333)"/>
    <ellipse id="Ellipse_14" data-name="Ellipse 14" class="cls-1" cx="0.448" cy="0.456" rx="0.448" ry="0.456" transform="translate(313.276 473.333)"/>
    <ellipse id="Ellipse_15" data-name="Ellipse 15" class="cls-1" cx="0.448" cy="0.456" rx="0.448" ry="0.456" transform="translate(316.414 473.333)"/>
    <ellipse id="Ellipse_16" data-name="Ellipse 16" class="cls-1" cx="0.448" cy="0.456" rx="0.448" ry="0.456" transform="translate(319.552 473.333)"/>
    <ellipse id="Ellipse_17" data-name="Ellipse 17" class="cls-1" cx="0.448" cy="0.456" rx="0.448" ry="0.456" transform="translate(322.69 473.333)"/>
    <ellipse id="Ellipse_18" data-name="Ellipse 18" class="cls-1" cx="0.448" cy="0.456" rx="0.448" ry="0.456" transform="translate(325.828 473.333)"/>
    <ellipse id="Ellipse_19" data-name="Ellipse 19" class="cls-1" cx="0.448" cy="0.456" rx="0.448" ry="0.456" transform="translate(328.966 473.333)"/>
    <ellipse id="Ellipse_20" data-name="Ellipse 20" class="cls-1" cx="0.448" cy="0.456" rx="0.448" ry="0.456" transform="translate(310.138 476.982)"/>
    <ellipse id="Ellipse_21" data-name="Ellipse 21" class="cls-1" cx="0.448" cy="0.456" rx="0.448" ry="0.456" transform="translate(313.276 476.982)"/>
    <ellipse id="Ellipse_22" data-name="Ellipse 22" class="cls-1" cx="0.448" cy="0.456" rx="0.448" ry="0.456" transform="translate(316.414 476.982)"/>
    <ellipse id="Ellipse_23" data-name="Ellipse 23" class="cls-1" cx="0.448" cy="0.456" rx="0.448" ry="0.456" transform="translate(319.552 476.982)"/>
    <ellipse id="Ellipse_24" data-name="Ellipse 24" class="cls-1" cx="0.448" cy="0.456" rx="0.448" ry="0.456" transform="translate(322.69 476.982)"/>
  </g>
</svg>
