<svg xmlns="http://www.w3.org/2000/svg" viewBox="-6987 -15077 28.688 30.737">
  <defs>
    <style>
      .cls-1 {
        fill: #fff;
      }
    </style>
  </defs>
  <g id="calendar" transform="translate(-7014 -15469)">
    <path id="Path_396" data-name="Path 396" class="cls-1" d="M30.176,2.049H26.59V.512A.512.512,0,0,0,26.078,0H22.492a.512.512,0,0,0-.512.512V2.049H10.709V.512A.512.512,0,0,0,10.2,0H6.611A.512.512,0,0,0,6.1.512V2.049H2.512A.512.512,0,0,0,2,2.561V30.225a.512.512,0,0,0,.512.512H30.176a.512.512,0,0,0,.512-.512V2.561A.512.512,0,0,0,30.176,2.049ZM23,1.025h2.561V4.1H23V1.025Zm-15.881,0H9.684V4.1H7.123V1.025Zm-4.1,2.049H6.1V4.611a.512.512,0,0,0,.512.512H10.2a.512.512,0,0,0,.512-.512V3.074h11.27V4.611a.512.512,0,0,0,.512.512h3.586a.512.512,0,0,0,.512-.512V3.074h3.074V7.684H3.025Zm0,26.639v-21H29.664v21Z" transform="translate(25 392)"/>
    <path id="Path_397" data-name="Path 397" class="cls-1" d="M24.832,23H11V37.857H30.467V23H24.832Zm-3.586,1.025h3.586v3.586H21.246Zm3.586,8.2H21.246V28.635h3.586Zm-8.2-3.586h3.586v3.586H16.635Zm0-4.611h3.586v3.586H16.635Zm-4.611,0h3.586v3.586H12.025Zm0,4.611h3.586v3.586H12.025Zm3.586,8.2H12.025V33.246h3.586Zm4.611,0H16.635V33.246h3.586Zm4.611,0H21.246V33.246h3.586Zm4.611,0H25.857V33.246h3.586Zm0-4.611H25.857V28.635h3.586Zm0-8.2v3.586H25.857V24.025Z" transform="translate(20.611 380.783)"/>
  </g>
</svg>
