<svg xmlns="http://www.w3.org/2000/svg" viewBox="6568.619 659.877 23.096 24.746">
  <defs>
    <style>
      .cls-1 {
        opacity: 0.29;
      }
    </style>
  </defs>
  <g id="calendar" class="cls-1" transform="translate(6566.619 659.877)">
    <path id="Path_396" data-name="Path 396" d="M24.684,1.65H21.8V.412A.412.412,0,0,0,21.384,0H18.5a.412.412,0,0,0-.412.412V1.65H9.011V.412A.412.412,0,0,0,8.6,0H5.712A.412.412,0,0,0,5.3.412V1.65H2.412A.412.412,0,0,0,2,2.062V24.334a.412.412,0,0,0,.412.412H24.684a.412.412,0,0,0,.412-.412V2.062A.412.412,0,0,0,24.684,1.65ZM18.91.825h2.062V3.3H18.91V.825ZM6.124.825H8.187V3.3H6.124V.825Zm-3.3,1.65H5.3V3.712a.412.412,0,0,0,.412.412H8.6a.412.412,0,0,0,.412-.412V2.475h9.074V3.712a.412.412,0,0,0,.412.412h2.887a.412.412,0,0,0,.412-.412V2.475h2.475V6.187H2.825Zm0,21.447V7.011H24.271v16.91Z"/>
    <path id="Path_397" data-name="Path 397" d="M22.136,23H11V34.961H26.673V23H22.136Zm-2.887.825h2.887v2.887H19.249Zm2.887,6.6H19.249V27.537h2.887Zm-6.6-2.887h2.887v2.887H15.537Zm0-3.712h2.887v2.887H15.537Zm-3.712,0h2.887v2.887H11.825Zm0,3.712h2.887v2.887H11.825Zm2.887,6.6H11.825V31.249h2.887Zm3.712,0H15.537V31.249h2.887Zm3.712,0H19.249V31.249h2.887Zm3.712,0H22.961V31.249h2.887Zm0-3.712H22.961V27.537h2.887Zm0-6.6v2.887H22.961V23.825Z" transform="translate(-5.288 -13.514)"/>
  </g>
</svg>
