<svg xmlns="http://www.w3.org/2000/svg" viewBox="-14323 -13537.154 26 23.154">
  <defs>
    <style>
      .cls-1 {
        fill: #fff;
      }
    </style>
  </defs>
  <g id="chat_1_" data-name="chat (1)" transform="translate(-14323 -13539.619)">
    <path id="Path_236" data-name="Path 236" class="cls-1" d="M9.433,24.306h5.633a.421.421,0,1,0,0-.841H9.433a.421.421,0,1,0,0,.841Z" transform="translate(-5.1 -12.171)"/>
    <path id="Path_237" data-name="Path 237" class="cls-1" d="M20.7,29.465H9.433a.421.421,0,1,0,0,.841H20.7a.421.421,0,1,0,0-.841Z" transform="translate(-5.1 -15.648)"/>
    <path id="Path_238" data-name="Path 238" class="cls-1" d="M20.7,35.465H9.433a.421.421,0,1,0,0,.841H20.7a.421.421,0,1,0,0-.841Z" transform="translate(-5.1 -19.125)"/>
    <path id="Path_239" data-name="Path 239" class="cls-1" d="M23.431,2.494,8.636,2.465a2.535,2.535,0,0,0-2.57,2.493V7.113l-3.5.007A2.535,2.535,0,0,0,0,9.613V18.5a2.535,2.535,0,0,0,2.57,2.493H5.2v4.2a.421.421,0,0,0,.277.392.446.446,0,0,0,.156.028.44.44,0,0,0,.321-.137l4.205-4.488,7.2-.029a2.535,2.535,0,0,0,2.57-2.493v-.048l2.279,2.433a.44.44,0,0,0,.321.137.446.446,0,0,0,.156-.028.421.421,0,0,0,.277-.392v-4.2h.464A2.535,2.535,0,0,0,26,13.877V4.988A2.535,2.535,0,0,0,23.431,2.494ZM19.067,18.472a1.68,1.68,0,0,1-1.7,1.652l-7.4.029a.44.44,0,0,0-.319.137L6.067,24.111V20.574a.427.427,0,0,0-.433-.42H2.57A1.68,1.68,0,0,1,.867,18.5V9.613a1.68,1.68,0,0,1,1.7-1.652L6.5,7.952h0L17.364,7.93a1.68,1.68,0,0,1,1.7,1.652v8.889Zm6.067-4.6a1.68,1.68,0,0,1-1.7,1.652h-.9a.427.427,0,0,0-.433.42v3.538l-2.167-2.312V9.583A2.535,2.535,0,0,0,17.363,7.09L6.933,7.111V4.958a1.68,1.68,0,0,1,1.7-1.652l14.794.029h0a1.68,1.68,0,0,1,1.7,1.652v8.889Z"/>
  </g>
</svg>
