<svg xmlns="http://www.w3.org/2000/svg" viewBox="-6138.5 -14400.5 30.151 30.151">
  <defs>
    <style>
      .cls-1 {
        fill: none;
        stroke: #f1464a;
      }
    </style>
  </defs>
  <g id="cancel" transform="translate(-6138 -14400.003)">
    <path id="Path_382" data-name="Path 382" class="cls-1" d="M29.151,14.579A14.576,14.576,0,1,0,14.576,29.154,14.575,14.575,0,0,0,29.151,14.579Z"/>
    <path id="Path_383" data-name="Path 383" class="cls-1" d="M149.247,134.693l4.261-4.947a1.289,1.289,0,0,0-1.954-1.683l-4.009,4.654-4.009-4.654a1.289,1.289,0,1,0-1.954,1.683l4.261,4.947-4.261,4.947a1.289,1.289,0,0,0,1.954,1.683l4.009-4.654,4.009,4.654a1.289,1.289,0,0,0,1.954-1.683Z" transform="translate(-132.97 -120.115)"/>
  </g>
</svg>
