<svg xmlns="http://www.w3.org/2000/svg" viewBox="-5860.189 -13549.527 114.778 113.055">
  <defs>
    <style>
      .cls-1 {
        fill: #f70;
      }
    </style>
  </defs>
  <g id="crane" transform="translate(-5860.189 -13552.728)">
    <g id="Group_666" data-name="Group 666" transform="translate(0 3.2)">
      <path id="Path_484" data-name="Path 484" class="cls-1" d="M106.164,69.31v-32.3c0-.215-.215-.215-.215-.431a.211.211,0,0,0-.215-.215l-.431-.431h-.215L59.435,17.413c-.215,0-.431-.215-.861-.215H39.838a1.633,1.633,0,0,0-.431-.861L30.363,4.061a2.153,2.153,0,0,0-3.445,0L17.873,16.336c-.215.215-.215.646-.431.861H2.153A2.035,2.035,0,0,0,0,19.351V37.87a2.035,2.035,0,0,0,2.153,2.153H17.443V88.691a1.861,1.861,0,0,0-1.292.646L6.03,100.1a3.992,3.992,0,0,0-.431,1.507V114.1a2.035,2.035,0,0,0,2.153,2.153H49.96a2.035,2.035,0,0,0,2.153-2.153v-12.49a1.955,1.955,0,0,0-.646-1.507L41.346,89.337c-.215-.431-.646-.431-1.292-.646V40.024h62.019V71.248a2.035,2.035,0,0,0,2.153,2.153,6.245,6.245,0,1,1-6.245,6.245,2.153,2.153,0,0,0-4.307,0,10.552,10.552,0,0,0,21.1,0A11.007,11.007,0,0,0,106.164,69.31ZM28.641,9.23l6.03,8.183H22.611Zm18.95,93.244v9.475H9.906v-9.475L18.735,93H38.546ZM35.532,41.962v8.183L21.75,57.682V49.5ZM21.75,44.331V40.024h8.183ZM35.532,54.882v8.183L21.75,70.6V62.419Zm0,12.921v8.183L21.75,83.523V75.34Zm0,13.136v7.752L21.75,88.476ZM4.307,35.717V21.5H58.358L93.244,35.717Z" transform="translate(0 -3.2)"/>
    </g>
  </g>
</svg>
