<svg xmlns="http://www.w3.org/2000/svg" viewBox="0 0 17.466 21.047">
  <defs>
    <style>
      .cls-1 {
        fill: #6d6d6d;
      }
    </style>
  </defs>
  <g id="delete_red_" data-name="delete (red)" transform="translate(-24.2 -18.9)">
    <g id="Group_969" data-name="Group 969" transform="translate(24.2 18.9)">
      <path id="Path_1155" data-name="Path 1155" class="cls-1" d="M41.024,21.366h-4.9V20.42a1.514,1.514,0,0,0-1.52-1.52H31.227a1.514,1.514,0,0,0-1.52,1.52v.946h-4.9a.608.608,0,0,0,0,1.216h1.014v14.73a2.638,2.638,0,0,0,2.635,2.635h8.953a2.638,2.638,0,0,0,2.635-2.635V22.549h1.014a.592.592,0,1,0-.034-1.182ZM30.889,20.42a.339.339,0,0,1,.338-.338h3.378a.339.339,0,0,1,.338.338v.946H30.889Zm7.939,16.858A1.427,1.427,0,0,1,37.409,38.7H28.423A1.427,1.427,0,0,1,27,37.278V22.549H38.828Z" transform="translate(-24.2 -18.9)"/>
      <path id="Path_1156" data-name="Path 1156" class="cls-1" d="M48.808,48.151a.578.578,0,0,0,.574-.608V37.408a.6.6,0,0,0-.574-.608.628.628,0,0,0-.608.608V47.543A.606.606,0,0,0,48.808,48.151Z" transform="translate(-40.092 -30.753)"/>
      <path id="Path_1157" data-name="Path 1157" class="cls-1" d="M58.808,48.151a.606.606,0,0,0,.608-.608V37.408a.608.608,0,0,0-1.216,0V47.543A.628.628,0,0,0,58.808,48.151Z" transform="translate(-46.714 -30.753)"/>
      <path id="Path_1158" data-name="Path 1158" class="cls-1" d="M38.808,48.151a.606.606,0,0,0,.608-.608V37.408a.608.608,0,0,0-1.216,0V47.543A.606.606,0,0,0,38.808,48.151Z" transform="translate(-33.47 -30.753)"/>
    </g>
  </g>
</svg>
