<svg xmlns="http://www.w3.org/2000/svg" viewBox="0 0 12.448 15">
  <defs>
    <style>
      .cls-1 {
        fill: #ee3638;
      }
    </style>
  </defs>
  <g id="delete_red_" data-name="delete (red)" transform="translate(-24.2 -18.9)">
    <g id="Group_969" data-name="Group 969" transform="translate(24.2 18.9)">
      <path id="Path_1155" data-name="Path 1155" class="cls-1" d="M36.19,20.658H32.7v-.674A1.079,1.079,0,0,0,31.616,18.9H29.208a1.079,1.079,0,0,0-1.083,1.083v.674H24.633a.433.433,0,1,0,0,.867h.722v10.5A1.88,1.88,0,0,0,27.234,33.9h6.38a1.88,1.88,0,0,0,1.878-1.878V21.5h.722a.422.422,0,1,0-.024-.843Zm-7.223-.674a.241.241,0,0,1,.241-.241h2.408a.241.241,0,0,1,.241.241v.674H28.967ZM34.625,32a1.017,1.017,0,0,1-1.011,1.011h-6.4A1.017,1.017,0,0,1,26.2,32V21.5h8.427Z" transform="translate(-24.2 -18.9)"/>
      <path id="Path_1156" data-name="Path 1156" class="cls-1" d="M48.633,44.89a.412.412,0,0,0,.409-.433V37.233a.427.427,0,0,0-.409-.433.448.448,0,0,0-.433.433v7.223A.432.432,0,0,0,48.633,44.89Z" transform="translate(-42.422 -32.49)"/>
      <path id="Path_1157" data-name="Path 1157" class="cls-1" d="M58.633,44.89a.432.432,0,0,0,.433-.433V37.233a.433.433,0,0,0-.867,0v7.223A.448.448,0,0,0,58.633,44.89Z" transform="translate(-50.014 -32.49)"/>
      <path id="Path_1158" data-name="Path 1158" class="cls-1" d="M38.633,44.89a.432.432,0,0,0,.433-.433V37.233a.433.433,0,0,0-.867,0v7.223A.432.432,0,0,0,38.633,44.89Z" transform="translate(-34.829 -32.49)"/>
    </g>
  </g>
</svg>
