<svg xmlns="http://www.w3.org/2000/svg" viewBox="0 0 25.939 25.699">
  <defs>
    <style>
      .cls-1 {
        fill: #fff;
        stroke: #fff;
        stroke-width: 0.7px;
      }
    </style>
  </defs>
  <g id="Btn_Large_Done_icon" data-name="Btn/Large/ Done icon" transform="translate(-20.35 -20.65)">
    <path id="Path_1105" data-name="Path 1105" class="cls-1" d="M53.184,27.672,40.339,40.517l-4.914-5.3a.428.428,0,1,0-.647.56l5.259,5.647a.391.391,0,0,0,.3.129h0a.391.391,0,0,0,.3-.129L53.787,28.275a.417.417,0,0,0-.043-.6.453.453,0,0,0-.56,0Z" transform="translate(-7.958 -3.741)"/>
    <path id="Path_1106" data-name="Path 1106" class="cls-1" d="M25.441,46H40.959A4.728,4.728,0,0,0,45.7,41.259V32.681a.431.431,0,0,0-.862,0v8.578a3.863,3.863,0,0,1-3.879,3.879H25.441a3.863,3.863,0,0,1-3.879-3.879V25.741a3.863,3.863,0,0,1,3.879-3.879H39.364a.431.431,0,1,0,0-.862H25.441A4.728,4.728,0,0,0,20.7,25.741V41.259A4.728,4.728,0,0,0,25.441,46Z"/>
  </g>
</svg>
