<svg xmlns="http://www.w3.org/2000/svg" viewBox="0 0 25 25">
  <defs>
    <style>
      .cls-1 {
        fill: #ff951c;
      }
    </style>
  </defs>
  <path id="Fracnhisee_profile_card_Edit_icon" data-name="Fracnhisee profile card &gt; Edit icon" class="cls-1" d="M10.912,34.67a1.24,1.24,0,0,0,.394-.065l6.838-2.281h.022a.93.93,0,0,0,.13-.062l.05-.025a.93.93,0,0,0,.161-.127L33.374,17.239a4.434,4.434,0,0,0-6.27-6.27L12.254,25.831a.93.93,0,0,0-.127.158c0,.015-.019.034-.028.05a.93.93,0,0,0-.062.13v.022l-2.3,6.847a1.24,1.24,0,0,0,1.175,1.633ZM26.2,14.49l3.651,3.651-12,11.986-3.639-3.639Zm5.846-2.2a2.576,2.576,0,0,1,0,3.639l-.886.89-3.633-3.633.89-.89a2.576,2.576,0,0,1,3.639-.006ZM13.308,28.208l2.827,2.827-4.24,1.413Z" transform="translate(-9.673 -9.67)"/>
</svg>
