<svg xmlns="http://www.w3.org/2000/svg" viewBox="2982 -2697 128.998 128.998">
  <defs>
    <style>
      .cls-1 {
        fill: none;
      }

      .cls-2, .cls-5 {
        fill: #f70;
      }

      .cls-3 {
        fill: #fff;
      }

      .cls-4, .cls-5 {
        stroke: none;
      }
    </style>
  </defs>
  <g id="Group_555" data-name="Group 555" transform="translate(1952 -3060)">
    <g id="Group_333" data-name="Group 333" transform="translate(1030 362.775)">
      <g id="Path_398" data-name="Path 398" class="cls-1" transform="translate(0 0.225)">
        <path class="cls-4" d="M64.5,0A64.5,64.5,0,1,1,0,64.5,64.5,64.5,0,0,1,64.5,0Z"/>
        <path class="cls-5" d="M 64.49892425537109 125.9978408813477 C 72.80254364013672 125.9978408813477 80.856201171875 124.3722457885742 88.43616485595703 121.1661834716797 C 92.07958221435547 119.6251449584961 95.59388732910156 117.7176208496094 98.88146209716797 115.49658203125 C 102.1385879516602 113.2961044311523 105.2015228271484 110.7689208984375 107.985221862793 107.985221862793 C 110.7689208984375 105.2015228271484 113.2961044311523 102.1385879516602 115.49658203125 98.88146209716797 C 117.7176208496094 95.59388732910156 119.6251449584961 92.07958221435547 121.1661834716797 88.43616485595703 C 124.3722457885742 80.856201171875 125.9978408813477 72.80254364013672 125.9978408813477 64.49892425537109 C 125.9978408813477 56.19530487060547 124.3722457885742 48.14166259765625 121.1661834716797 40.56168365478516 C 119.6251449584961 36.91828536987305 117.7176208496094 33.40396499633789 115.49658203125 30.11638450622559 C 113.2961044311523 26.8592643737793 110.7689208984375 23.79632377624512 107.985221862793 21.01262474060059 C 105.2015228271484 18.22892379760742 102.1385879516602 15.70174407958984 98.88146209716797 13.5012845993042 C 95.59388732910156 11.28022384643555 92.07958221435547 9.37270450592041 88.43616485595703 7.831664085388184 C 80.856201171875 4.625604152679443 72.80254364013672 3.000004291534424 64.49892425537109 3.000004291534424 C 56.19530487060547 3.000004291534424 48.14166259765625 4.625604152679443 40.56170272827148 7.831664085388184 C 36.91828536987305 9.37270450592041 33.40396499633789 11.28022384643555 30.11638450622559 13.5012845993042 C 26.8592643737793 15.70174407958984 23.79632377624512 18.22892379760742 21.01262474060059 21.01262474060059 C 18.22892379760742 23.79632377624512 15.70174407958984 26.8592643737793 13.5012845993042 30.11638450622559 C 11.28022384643555 33.40396499633789 9.37270450592041 36.91828536987305 7.831664085388184 40.56170272827148 C 4.625604152679443 48.14166259765625 3.000004291534424 56.19530487060547 3.000004291534424 64.49892425537109 C 3.000004291534424 72.80254364013672 4.625604152679443 80.856201171875 7.831664085388184 88.43616485595703 C 9.37270450592041 92.07958221435547 11.28022384643555 95.59388732910156 13.5012845993042 98.88146209716797 C 15.70174407958984 102.1385879516602 18.22892379760742 105.2015228271484 21.01262474060059 107.985221862793 C 23.79632377624512 110.7689208984375 26.8592643737793 113.2961044311523 30.11638450622559 115.49658203125 C 33.40396499633789 117.7176208496094 36.91828536987305 119.6251449584961 40.56168365478516 121.1661834716797 C 48.14166259765625 124.3722457885742 56.19530487060547 125.9978408813477 64.49892425537109 125.9978408813477 M 64.49892425537109 128.9978485107422 C 28.87716484069824 128.9978485107422 4.25537109549623e-06 100.1207046508789 4.25537109549623e-06 64.49892425537109 C 4.25537109549623e-06 28.87716484069824 28.87716484069824 4.25537109549623e-06 64.49892425537109 4.25537109549623e-06 C 100.1207046508789 4.25537109549623e-06 128.9978485107422 28.87716484069824 128.9978485107422 64.49892425537109 C 128.9978485107422 100.1207046508789 100.1207046508789 128.9978485107422 64.49892425537109 128.9978485107422 Z"/>
      </g>
      <path id="noun_225975_cc" class="cls-2" d="M44.481,34.078A10.372,10.372,0,1,0,54.854,44.451,10.353,10.353,0,0,0,44.481,34.078Zm5.632,11.766H45.875v4.238H43.087V45.845H38.849V43.056h4.238V38.818h2.788v4.238h4.238ZM7.9,49.079V19.524a2.416,2.416,0,0,1,.223-1.06,3.187,3.187,0,0,1,.613-.892L18.774,7.925a2.746,2.746,0,0,1,.836-.558,3.158,3.158,0,0,1,1-.167h19.35a5.879,5.879,0,0,1,5.911,5.911V31.234a3.689,3.689,0,0,0-1.394-.167,10.746,10.746,0,0,0-1.338.056V13.055A3.118,3.118,0,0,0,40.02,9.932H21.506v4.517A5.95,5.95,0,0,1,15.6,20.36H10.632V49.023a3.118,3.118,0,0,0,3.123,3.123H33.607a14.132,14.132,0,0,0,2.677,2.788H13.811A5.832,5.832,0,0,1,7.9,49.079Z" transform="translate(33.1 33.024)"/>
    </g>
    <circle id="Ellipse_355" data-name="Ellipse 355" class="cls-2" cx="10.5" cy="10.5" r="10.5" transform="translate(1097 430)"/>
    <g id="noun_220762_cc_1_" data-name="noun_220762_cc (1)" transform="translate(1074.844 420.496)">
      <path id="Path_419" data-name="Path 419" class="cls-3" d="M28.724,19.232,32.061,15.9v9.38a.77.77,0,0,0,1.54,0V15.9l3.337,3.337a.66.66,0,0,0,.933-.933l-4.5-4.527a.619.619,0,0,0-.513-.187h-.047a.7.7,0,0,0-.513.187L27.768,18.3a.662.662,0,0,0,0,.933A.69.69,0,0,0,28.724,19.232Z" transform="translate(0 -0.717)"/>
    </g>
  </g>
</svg>
