<svg xmlns="http://www.w3.org/2000/svg" viewBox="0 0 125 125">
  <defs>
    <style>
      .cls-1 {
        fill: none;
      }

      .cls-2, .cls-3, .cls-5 {
        fill: #f70;
      }

      .cls-3 {
        stroke: #f70;
      }

      .cls-4, .cls-5 {
        stroke: none;
      }
    </style>
  </defs>
  <g id="NDA_no_file_uploaded_empty" data-name="NDA/ no file uploaded empty" transform="translate(-7218.578 -2511)">
    <g id="Group_757" data-name="Group 757" transform="translate(7218.578 2510.578)">
      <g id="Path_398" data-name="Path 398" class="cls-1" transform="translate(0 0.422)">
        <path class="cls-4" d="M62.5,0A62.5,62.5,0,1,1,0,62.5,62.5,62.5,0,0,1,62.5,0Z"/>
        <path class="cls-5" d="M 62.5 122 C 70.53376007080078 122 78.32563781738281 120.4272537231445 85.65916442871094 117.3254165649414 C 89.18414306640625 115.8344879150391 92.58419799804688 113.9889602661133 95.76493072509766 111.8401107788086 C 98.91619873046875 109.7111663818359 101.8796157836914 107.2660903930664 104.5728530883789 104.5728530883789 C 107.2660903930664 101.8796157836914 109.7111663818359 98.91619873046875 111.8401107788086 95.76493072509766 C 113.9889602661133 92.58419799804688 115.8344879150391 89.18414306640625 117.3254165649414 85.65916442871094 C 120.4272537231445 78.32563781738281 122 70.53376007080078 122 62.5 C 122 54.46623611450195 120.4272537231445 46.67436218261719 117.3254165649414 39.34083557128906 C 115.8344879150391 35.81587219238281 113.9889602661133 32.41579818725586 111.8401107788086 29.2350902557373 C 109.7111663818359 26.08381843566895 107.2660903930664 23.12039947509766 104.5728530883789 20.42714500427246 C 101.8796157836914 17.73390960693359 98.91619873046875 15.28885459899902 95.76493072509766 13.15989112854004 C 92.58419799804688 11.01103591918945 89.18414306640625 9.165509223937988 85.65916442871094 7.674582004547119 C 78.32563781738281 4.572745323181152 70.53376007080078 3 62.5 3 C 54.46623611450195 3 46.67436218261719 4.572745323181152 39.34083557128906 7.674582004547119 C 35.81587219238281 9.165509223937988 32.41579818725586 11.01103591918945 29.2350902557373 13.15989112854004 C 26.08381843566895 15.28885459899902 23.12039947509766 17.73390960693359 20.42714500427246 20.42714500427246 C 17.73390960693359 23.12039947509766 15.28885459899902 26.08381843566895 13.15989112854004 29.2350902557373 C 11.01103591918945 32.41579818725586 9.165509223937988 35.81587219238281 7.674582004547119 39.34083557128906 C 4.572745323181152 46.67436218261719 3 54.46623611450195 3 62.5 C 3 70.53376007080078 4.572745323181152 78.32563781738281 7.674582004547119 85.65916442871094 C 9.165509223937988 89.18414306640625 11.01103591918945 92.58419799804688 13.15989112854004 95.76493072509766 C 15.28885459899902 98.91619873046875 17.73390960693359 101.8796157836914 20.42714500427246 104.5728530883789 C 23.12039947509766 107.2660903930664 26.08381843566895 109.7111663818359 29.2350902557373 111.8401107788086 C 32.41579818725586 113.9889602661133 35.81587219238281 115.8344879150391 39.34083557128906 117.3254165649414 C 46.67436218261719 120.4272537231445 54.46623611450195 122 62.5 122 M 62.5 125 C 27.98221778869629 125 0 97.01779937744141 0 62.5 C 0 27.98221778869629 27.98221778869629 0 62.5 0 C 97.01779937744141 0 125 27.98221778869629 125 62.5 C 125 97.01779937744141 97.01779937744141 125 62.5 125 Z"/>
      </g>
    </g>
    <g id="file_1_" data-name="file (1)" transform="translate(7255.078 2546)">
      <path id="Path_478" data-name="Path 478" class="cls-2" d="M40.065,22H17.406a.906.906,0,0,0,0,1.813H40.065a.906.906,0,0,0,0-1.813Z" transform="translate(-0.936 -2.06)"/>
      <path id="Path_479" data-name="Path 479" class="cls-2" d="M17.406,15.813H26.47a.906.906,0,1,0,0-1.813H17.406a.906.906,0,0,0,0,1.813Z" transform="translate(-0.936 -1.311)"/>
      <path id="Path_480" data-name="Path 480" class="cls-2" d="M40.065,30H17.406a.906.906,0,0,0,0,1.813H40.065a.906.906,0,0,0,0-1.813Z" transform="translate(-0.936 -2.809)"/>
      <path id="Path_481" data-name="Path 481" class="cls-2" d="M40.065,38H17.406a.906.906,0,1,0,0,1.813H40.065a.906.906,0,0,0,0-1.813Z" transform="translate(-0.936 -3.558)"/>
      <path id="Path_482" data-name="Path 482" class="cls-2" d="M40.065,46H17.406a.906.906,0,1,0,0,1.813H40.065a.906.906,0,0,0,0-1.813Z" transform="translate(-0.936 -4.308)"/>
      <path id="Path_483" data-name="Path 483" class="cls-3" d="M35.879,0H6.5V54.381H49.1V13.22Zm.531,3.094L46,12.689H36.41ZM8.313,52.569V1.813H34.6V14.5H47.286V52.569Z"/>
    </g>
  </g>
</svg>
