<svg xmlns="http://www.w3.org/2000/svg" viewBox="-14323 -13833.225 26 19.225">
  <defs>
    <style>
      .cls-1 {
        fill: #fff;
      }
    </style>
  </defs>
  <path id="folder" class="cls-1" d="M24.912,11.777H23.4V9.318a1.133,1.133,0,0,0-1.184-1.072H11.49L9.323,5.5H1.184A1.134,1.134,0,0,0,0,6.572v17.14H0a.937.937,0,0,0,.226.618,1.147,1.147,0,0,0,.883.395h19.4a1.092,1.092,0,0,0,1.062-.711l4.431-11v-.069A1.092,1.092,0,0,0,24.912,11.777ZM.867,6.572a.3.3,0,0,1,.317-.287H8.877l2.167,2.746H22.216a.3.3,0,0,1,.317.287v2.459H5.517a1.2,1.2,0,0,0-.185.014,1.062,1.062,0,0,0-.877.7L.867,21.35Zm19.877,17.2a.243.243,0,0,1-.236.164H1.111a.247.247,0,0,1-.194-.087.2.2,0,0,1-.053-.16L5.28,12.726a.243.243,0,0,1,.236-.164h19.4c.165,0,.207.214.218.321Z" transform="translate(-14323 -13838.725)"/>
</svg>
