<svg xmlns="http://www.w3.org/2000/svg" viewBox="-20358.82 -16819.832 67.828 74.182">
  <defs>
    <style>
      .cls-1 {
        fill: #ee3638;
      }
    </style>
  </defs>
  <g id="noun_1476805_cc" transform="translate(-20358.82 -16819.832)">
    <g id="Group" transform="translate(0 0)">
      <path id="Compound_Path" data-name="Compound Path" class="cls-1" d="M77.027,43.795,59.571,34.4l-9.808,5.4A25.185,25.185,0,0,0,42.282,35.9a16.292,16.292,0,1,0-15.793,0A25.269,25.269,0,0,0,9.2,59.837V73.885H49.846a23.606,23.606,0,0,0,6.816,4.489L59.4,79.537l3.075-1.33A23.523,23.523,0,0,0,77.027,56.512ZM21.419,21.6a12.967,12.967,0,1,1,3.827,9.2,12.967,12.967,0,0,1-3.827-9.2ZM12.442,59.837a21.861,21.861,0,0,1,34-18.287l-3.99,2.244V56.762a23.607,23.607,0,0,0,4.489,13.8H12.525Zm61.177-3.325a20.2,20.2,0,0,1-12.468,18.7l-1.746.748-1.5-.665A20.282,20.282,0,0,1,45.773,56.762V45.79l13.715-7.564L73.619,45.79Z" transform="translate(-9.2 -5.356)"/>
      <path id="Path" class="cls-1" d="M61.777,63.692,59.2,65.854,64.52,72l1,1.247H65.6l1.247-1.081,10.889-8.894L75.658,60.7l-9.725,7.9Z" transform="translate(-17.64 -14.697)"/>
    </g>
  </g>
</svg>
