<svg xmlns="http://www.w3.org/2000/svg" viewBox="-13889 -14107 14.839 14.839">
  <defs>
    <style>
      .cls-1 {
        fill: #f1464a;
      }
    </style>
  </defs>
  <path id="Path_4" data-name="Path 4" class="cls-1" d="M2.226,2.226A6.736,6.736,0,0,1,7.419,0a6.736,6.736,0,0,1,5.194,2.226,6.736,6.736,0,0,1,2.226,5.194,6.736,6.736,0,0,1-2.226,5.194,6.736,6.736,0,0,1-5.194,2.226,6.736,6.736,0,0,1-5.194-2.226A7.4,7.4,0,0,1,0,7.419,6.736,6.736,0,0,1,2.226,2.226ZM8.409,13.355a3.038,3.038,0,0,0,1.855-1.113,5.4,5.4,0,0,0,.866-2.6,2.048,2.048,0,0,0-.618-1.484A2.177,2.177,0,0,0,8.9,7.419H7.667a3.611,3.611,0,0,1-1.113-.247,1.123,1.123,0,0,1-.371-.866.642.642,0,0,1,.247-.495.937.937,0,0,1,.495-.247.844.844,0,0,1,.618.371c.247.124.371.247.495.247a.743.743,0,0,0,.495-.124.743.743,0,0,0,.124-.495,1.968,1.968,0,0,0-.618-1.237,5.115,5.115,0,0,0,.618-2.349.266.266,0,0,0-.247-.247,3.823,3.823,0,0,0-.989-.247A6.186,6.186,0,0,0,4.2,2.473,3.113,3.113,0,0,0,3.091,4.946,3.166,3.166,0,0,0,4.081,7.3a3.378,3.378,0,0,0,2.349.989h0V8.78a1.588,1.588,0,0,0,.495,1.237,1.8,1.8,0,0,0,1.113.742v2.226c0,.124,0,.124.124.247S8.285,13.355,8.409,13.355Z" transform="translate(-13889 -14107)"/>
</svg>
