<svg xmlns="http://www.w3.org/2000/svg" xmlns:xlink="http://www.w3.org/1999/xlink" viewBox="0 0 802 558">
  <defs>
    <style>
      .cls-1, .cls-7 {
        fill: none;
      }

      .cls-10, .cls-11, .cls-12, .cls-13, .cls-14, .cls-15, .cls-16, .cls-2 {
        fill: #fff;
      }

      .cls-2 {
        stroke: silver;
      }

      .cls-3, .cls-8 {
        fill: #393939;
      }

      .cls-3 {
        font-size: 26px;
        font-family: Montserrat-Medium, Montserrat;
        font-weight: 500;
      }

      .cls-4 {
        fill: #6d6d6d;
        font-size: 14px;
        letter-spacing: 0.02em;
      }

      .cls-4, .cls-8 {
        font-family: Montserrat-Regular, Montserrat;
      }

      .cls-5 {
        clip-path: url(#clip-path);
      }

      .cls-6 {
        fill: #f70;
      }

      .cls-7 {
        stroke: #f70;
        stroke-width: 2px;
      }

      .cls-8 {
        stroke: #707070;
        font-size: 12px;
      }

      .cls-15, .cls-8 {
        stroke-width: 0.2px;
      }

      .cls-9 {
        clip-path: url(#clip-path-2);
      }

      .cls-10, .cls-11, .cls-12, .cls-13, .cls-15, .cls-16 {
        stroke: #fff;
      }

      .cls-10, .cls-16 {
        stroke-width: 0.4px;
      }

      .cls-10 {
        fill-rule: evenodd;
      }

      .cls-11 {
        stroke-width: 0.7px;
      }

      .cls-12 {
        stroke-width: 0.6px;
      }

      .cls-13 {
        stroke-width: 0.8px;
      }

      .cls-17 {
        stroke: none;
      }
    </style>
    <clipPath id="clip-path">
      <rect class="cls-1" width="604" height="108"/>
    </clipPath>
    <clipPath id="clip-path-2">
      <rect class="cls-1" width="337" height="112.509"/>
    </clipPath>
  </defs>
  <g id="Symbol_456" data-name="Symbol 456" transform="translate(-862 -279)">
    <g id="Rectangle_1749" data-name="Rectangle 1749" class="cls-2" transform="translate(862 279)">
      <rect class="cls-17" width="802" height="558" rx="5"/>
      <rect class="cls-1" x="0.5" y="0.5" width="801" height="557" rx="4.5"/>
    </g>
    <text id="Explore_our_Services" data-name="Explore our Services" class="cls-3" transform="translate(1132 351)"><tspan x="0" y="0">Explore our Services</tspan></text>
    <text id="Extensive_and_easy-to-use_features_that_will_make_your_franchise_management_easier_than_ever_before_" data-name="Extensive and easy-to-use features that will make your franchise management easier than ever before!" class="cls-4" transform="translate(1065 371)"><tspan x="4.649" y="14">Extensive and easy-to-use features that will make your </tspan><tspan x="30.101" y="34">franchise management easier than ever before!</tspan></text>
    <g id="Repeat_Grid_280" data-name="Repeat Grid 280" class="cls-5" transform="translate(961 448)">
      <g id="Group_1076" data-name="Group 1076" transform="translate(23152 4470)">
        <g id="Symbol_458_3" data-name="Symbol 458 – 3">
          <circle id="Ellipse_467" data-name="Ellipse 467" class="cls-6" cx="30.674" cy="30.674" r="30.674" transform="translate(-23142.176 -4460.174)"/>
          <g id="Ellipse_468" data-name="Ellipse 468" class="cls-7" transform="translate(-23148 -4465.509)">
            <circle class="cls-17" cx="36.009" cy="36.009" r="36.009"/>
            <circle class="cls-1" cx="36.009" cy="36.009" r="35.009"/>
          </g>
          <text id="Dashboard" class="cls-8" transform="translate(-23112 -4374)"><tspan x="-32.586" y="0">Dashboard</tspan></text>
        </g>
      </g>
      <g id="Group_1076-2" data-name="Group 1076" transform="translate(23279 4470)">
        <g id="Symbol_458_4" data-name="Symbol 458 – 4">
          <circle id="Ellipse_467-2" data-name="Ellipse 467" class="cls-6" cx="30.674" cy="30.674" r="30.674" transform="translate(-23142.176 -4460.174)"/>
          <g id="Ellipse_468-2" data-name="Ellipse 468" class="cls-7" transform="translate(-23148 -4465.509)">
            <circle class="cls-17" cx="36.009" cy="36.009" r="36.009"/>
            <circle class="cls-1" cx="36.009" cy="36.009" r="35.009"/>
          </g>
          <text id="CRM_Setup" data-name="CRM Setup" class="cls-8" transform="translate(-23112 -4374)"><tspan x="-33.306" y="0">CRM Setup</tspan></text>
        </g>
      </g>
      <g id="Group_1076-3" data-name="Group 1076" transform="translate(23406 4470)">
        <g id="Symbol_458_5" data-name="Symbol 458 – 5">
          <circle id="Ellipse_467-3" data-name="Ellipse 467" class="cls-6" cx="30.674" cy="30.674" r="30.674" transform="translate(-23142.176 -4460.174)"/>
          <g id="Ellipse_468-3" data-name="Ellipse 468" class="cls-7" transform="translate(-23148 -4465.509)">
            <circle class="cls-17" cx="36.009" cy="36.009" r="36.009"/>
            <circle class="cls-1" cx="36.009" cy="36.009" r="35.009"/>
          </g>
          <text id="Digital_Library" data-name="Digital Library" class="cls-8" transform="translate(-23112 -4374)"><tspan x="-40.998" y="0">Digital Library</tspan></text>
        </g>
      </g>
      <g id="Group_1076-4" data-name="Group 1076" transform="translate(23533 4470)">
        <g id="Symbol_458_6" data-name="Symbol 458 – 6">
          <circle id="Ellipse_467-4" data-name="Ellipse 467" class="cls-6" cx="30.674" cy="30.674" r="30.674" transform="translate(-23142.176 -4460.174)"/>
          <g id="Ellipse_468-4" data-name="Ellipse 468" class="cls-7" transform="translate(-23148 -4465.509)">
            <circle class="cls-17" cx="36.009" cy="36.009" r="36.009"/>
            <circle class="cls-1" cx="36.009" cy="36.009" r="35.009"/>
          </g>
          <text id="Marketing" class="cls-8" transform="translate(-23112 -4374)"><tspan x="-30.096" y="0">Marketing</tspan></text>
        </g>
      </g>
      <g id="Group_1076-5" data-name="Group 1076" transform="translate(23660 4470)">
        <g id="Symbol_458_7" data-name="Symbol 458 – 7">
          <circle id="Ellipse_467-5" data-name="Ellipse 467" class="cls-6" cx="30.674" cy="30.674" r="30.674" transform="translate(-23142.176 -4460.174)"/>
          <g id="Ellipse_468-5" data-name="Ellipse 468" class="cls-7" transform="translate(-23148 -4465.509)">
            <circle class="cls-17" cx="36.009" cy="36.009" r="36.009"/>
            <circle class="cls-1" cx="36.009" cy="36.009" r="35.009"/>
          </g>
          <text id="Discussion_Forum" data-name="Discussion Forum" class="cls-8" transform="translate(-23112 -4374)"><tspan x="-52.368" y="0">Discussion Forum</tspan></text>
        </g>
      </g>
    </g>
    <g id="Repeat_Grid_281" data-name="Repeat Grid 281" class="cls-9" transform="translate(1084 582.491)">
      <g transform="translate(22377 4585.509)">
        <g id="Symbol_458_8" data-name="Symbol 458 – 8" transform="translate(785 -120)">
          <circle id="Ellipse_467-6" data-name="Ellipse 467" class="cls-6" cx="30.674" cy="30.674" r="30.674" transform="translate(-23142.176 -4460.174)"/>
          <g id="Ellipse_468-6" data-name="Ellipse 468" class="cls-7" transform="translate(-23148 -4465.509)">
            <circle class="cls-17" cx="36.009" cy="36.009" r="36.009"/>
            <circle class="cls-1" cx="36.009" cy="36.009" r="35.009"/>
          </g>
          <text id="Ticketing_System" data-name="Ticketing System" class="cls-8" transform="translate(-23112 -4374)"><tspan x="-50.322" y="0">Ticketing System</tspan></text>
        </g>
      </g>
      <g transform="translate(22501 4585.509)">
        <g id="Symbol_458_9" data-name="Symbol 458 – 9" transform="translate(785 -120)">
          <circle id="Ellipse_467-7" data-name="Ellipse 467" class="cls-6" cx="30.674" cy="30.674" r="30.674" transform="translate(-23142.176 -4460.174)"/>
          <g id="Ellipse_468-7" data-name="Ellipse 468" class="cls-7" transform="translate(-23148 -4465.509)">
            <circle class="cls-17" cx="36.009" cy="36.009" r="36.009"/>
            <circle class="cls-1" cx="36.009" cy="36.009" r="35.009"/>
          </g>
          <text id="Audit_Management" data-name="Audit
Management" class="cls-8" transform="translate(-23112 -4374)"><tspan x="-16.194" y="0">Audit</tspan><tspan x="-40.044" y="15">Management</tspan></text>
        </g>
      </g>
      <g transform="translate(22625 4585.509)">
        <g id="Symbol_458_10" data-name="Symbol 458 – 10" transform="translate(785 -120)">
          <circle id="Ellipse_467-8" data-name="Ellipse 467" class="cls-6" cx="30.674" cy="30.674" r="30.674" transform="translate(-23142.176 -4460.174)"/>
          <g id="Ellipse_468-8" data-name="Ellipse 468" class="cls-7" transform="translate(-23148 -4465.509)">
            <circle class="cls-17" cx="36.009" cy="36.009" r="36.009"/>
            <circle class="cls-1" cx="36.009" cy="36.009" r="35.009"/>
          </g>
          <text id="Revenue_Sales" data-name="Revenue &amp;
Sales" class="cls-8" transform="translate(-23112 -4374)"><tspan x="-31.116" y="0">Revenue &amp;</tspan><tspan x="-15.18" y="15">Sales</tspan></text>
        </g>
      </g>
    </g>
    <g id="noun_685849_cc" transform="translate(910.457 504.285)">
      <g id="Group_1078" data-name="Group 1078" transform="translate(76 -27)">
        <g id="Group_1077" data-name="Group 1077" transform="translate(0 0)">
          <path id="Path_1214" data-name="Path 1214" class="cls-10" d="M25.544,25A15.783,15.783,0,0,0,10,40.978a.777.777,0,1,0,1.554,0A14.227,14.227,0,0,1,25.544,26.554,14.227,14.227,0,0,1,39.533,40.978a.777.777,0,1,0,1.554,0A15.783,15.783,0,0,0,25.544,25" transform="translate(-10 -25)"/>
          <path id="Path_1215" data-name="Path 1215" class="cls-10" d="M45.535,55.3a2.332,2.332,0,1,1-3.3-3.3c.817-.817,4.3-2.484,6.878-3.581-1.1,2.582-2.763,6.06-3.581,6.879m4.716-8.865a2.656,2.656,0,0,0-1.029.257s-6.567,2.693-8.084,4.211a3.886,3.886,0,0,0,5.5,5.5c1.517-1.517,4.211-8.084,4.211-8.084.506-1.173.23-1.88-.594-1.88" transform="translate(-28.342 -38.103)"/>
          <path id="Path_1216" data-name="Path 1216" class="cls-10" d="M17.555,64h-.779a.777.777,0,0,0,0,1.554h.779a.777.777,0,0,0,0-1.554" transform="translate(-13.668 -48.845)"/>
          <path id="Path_1217" data-name="Path 1217" class="cls-10" d="M79.555,64h-.779a.777.777,0,0,0,0,1.554h.779a.777.777,0,0,0,0-1.554" transform="translate(-51.576 -48.845)"/>
          <path id="Path_1218" data-name="Path 1218" class="cls-10" d="M49.554,33.555v-.779a.777.777,0,0,0-1.554,0v.779a.777.777,0,0,0,1.554,0" transform="translate(-33.234 -29.28)"/>
          <path id="Path_1219" data-name="Path 1219" class="cls-10" d="M26.7,41.6a.777.777,0,0,0-1.1,1.1l.551.551a.777.777,0,0,0,1.1-1.1Z" transform="translate(-19.398 -35.011)"/>
          <path id="Path_1220" data-name="Path 1220" class="cls-10" d="M69.991,41.6l-.551.551a.777.777,0,0,0,1.1,1.1l.551-.551a.777.777,0,0,0-1.1-1.1" transform="translate(-46.204 -35.009)"/>
        </g>
      </g>
    </g>
    <path id="users" class="cls-11" d="M23.367,20.435l-4.058-2a1.1,1.1,0,0,1-.621-.989V16.035c.1-.117.2-.25.305-.4a9.516,9.516,0,0,0,1.255-2.425,1.658,1.658,0,0,0,.988-1.513V10.027a1.653,1.653,0,0,0-.425-1.1V6.705a3.707,3.707,0,0,0-.889-2.729A5.394,5.394,0,0,0,15.716,2.5a5.4,5.4,0,0,0-4.208,1.476,3.6,3.6,0,0,0-.877,2.009,5.589,5.589,0,0,0-2.56-.558c-4.413,0-4.67,3.7-4.672,3.764v1.915a1.445,1.445,0,0,0-.425.974v1.444a1.483,1.483,0,0,0,.557,1.156,6.391,6.391,0,0,0,1.548,2.628v1.147a.907.907,0,0,1-.5.8L1.755,21A3.306,3.306,0,0,0,0,23.912V25.5H25.485V23.809A3.747,3.747,0,0,0,23.367,20.435ZM5.947,23.728v.936H.85v-.751a2.484,2.484,0,0,1,1.334-2.188l2.825-1.745a1.729,1.729,0,0,0,.918-1.523v-1.5l-.135-.124a5.559,5.559,0,0,1-1.473-2.49l-.039-.166-.145-.092a.662.662,0,0,1-.312-.558V12.08a.728.728,0,0,1,.285-.491l.14-.124V9.215c.008-.12.229-2.952,3.824-2.952a4.474,4.474,0,0,1,2.549.687V8.93a1.653,1.653,0,0,0-.425,1.1V11.7a1.657,1.657,0,0,0,.043.373c.011.049.034.093.05.14a1.635,1.635,0,0,0,.075.209v0A1.68,1.68,0,0,0,10.83,13l.007.023c.025.1.052.191.081.284l.034.109c.006.019.013.039.02.058.015.045.029.09.045.134.025.073.052.149.083.231.013.034.028.065.041.1.035.087.07.172.106.256.009.02.017.042.025.061l.024.053c.011.024.023.046.034.07.042.089.082.176.125.26l.02.041c.027.052.054.1.08.152.046.086.091.167.136.246l.065.112c.061.1.119.2.176.285l.036.056c.1.157.192.284.266.383l.053.071.03.041V17.41a1.1,1.1,0,0,1-.585.97l-1.124.6-.2-.017-.08.165-2.39,1.283A3.764,3.764,0,0,0,5.947,23.728Zm18.689.936H6.8v-.936A2.928,2.928,0,0,1,8.35,21.15l3.789-2.035a1.938,1.938,0,0,0,1.028-1.7V15.73h0l-.082-.1-.016-.019s-.027-.033-.07-.088l-.008-.01c-.023-.029-.049-.064-.079-.1v0c-.063-.087-.143-.2-.231-.335l-.006-.009c-.042-.064-.086-.134-.131-.208l-.01-.017c-.1-.158-.2-.338-.3-.537h0c-.054-.107-.108-.219-.161-.335h0l-.022-.049h0c-.023-.052-.047-.107-.071-.164l-.025-.063c-.022-.055-.045-.11-.068-.173-.043-.114-.084-.233-.123-.355l-.023-.074-.008-.026c-.04-.132-.078-.267-.11-.406l-.039-.166-.145-.092a.831.831,0,0,1-.393-.7V10.027a.82.82,0,0,1,.285-.617l.14-.124V6.534l-.011-.009a2.864,2.864,0,0,1,.689-2,4.6,4.6,0,0,1,3.57-1.191,4.616,4.616,0,0,1,3.562,1.183,2.91,2.91,0,0,1,.689,2.108l0,2.659.14.125a.818.818,0,0,1,.285.616V11.7a.833.833,0,0,1-.6.794l-.212.064-.068.207a8.7,8.7,0,0,1-1.2,2.389,5.514,5.514,0,0,1-.356.451l-.106.119v1.725a1.928,1.928,0,0,0,1.09,1.737l4.058,2a2.916,2.916,0,0,1,1.648,2.626Z" transform="translate(1115.838 473.268)"/>
    <path id="folder" class="cls-11" d="M25.735,11.985H24.173V9.444A1.171,1.171,0,0,0,22.95,8.337H11.869L9.631,5.5H1.223A1.171,1.171,0,0,0,0,6.607V24.314H0a.968.968,0,0,0,.234.638,1.185,1.185,0,0,0,.912.408H21.185a1.128,1.128,0,0,0,1.1-.735l4.578-11.364v-.072A1.128,1.128,0,0,0,25.735,11.985ZM.9,6.607a.314.314,0,0,1,.328-.3H9.17l2.238,2.837H22.95a.313.313,0,0,1,.328.3v2.54H5.7A1.237,1.237,0,0,0,5.508,12a1.1,1.1,0,0,0-.906.72L.9,21.874ZM21.429,24.38a.251.251,0,0,1-.244.169H1.148a.255.255,0,0,1-.2-.09.206.206,0,0,1-.055-.165L5.455,12.964A.251.251,0,0,1,5.7,12.8H25.735c.17,0,.214.221.225.332Z" transform="translate(1243.123 472.845)"/>
    <g id="Group_1079" data-name="Group 1079" transform="translate(1064.652 20.652)">
      <path id="Path_211" data-name="Path 211" class="cls-12" d="M16.786,2.093A1.969,1.969,0,0,0,14.869.5a.4.4,0,0,0,0,.8,1.195,1.195,0,0,1,0,2.389.4.4,0,0,0,0,.8,1.969,1.969,0,0,0,1.917-1.593h5.126V6.472H.783V2.889H7.435a.4.4,0,0,0,0-.8H6.724a1.173,1.173,0,0,1,1.1-.8,1.195,1.195,0,0,1,0,2.389.4.4,0,0,0,0,.8A1.976,1.976,0,0,0,9.782,2.491a1.954,1.954,0,0,0-3.873-.4H0V23.2H22.7V2.093ZM21.913,22.4H.783V7.269h21.13Z" transform="translate(307 455.5)"/>
      <path id="Path_212" data-name="Path 212" class="cls-12" d="M25.391,1.3a1.195,1.195,0,0,1,0,2.389.4.4,0,0,0,0,.8,1.976,1.976,0,0,0,1.956-1.991A1.976,1.976,0,0,0,25.391.5a.4.4,0,0,0,0,.8Z" transform="translate(291.782 455.5)"/>
      <path id="Path_213" data-name="Path 213" class="cls-12" d="M31.391,1.3a1.195,1.195,0,0,1,0,2.389.4.4,0,0,0,0,.8,1.976,1.976,0,0,0,1.956-1.991A1.976,1.976,0,0,0,31.391.5a.4.4,0,0,0,0,.8Z" transform="translate(288.13 455.5)"/>
      <ellipse id="Ellipse_1" data-name="Ellipse 1" class="cls-12" cx="0.391" cy="0.398" rx="0.391" ry="0.398" transform="translate(315.217 465.158)"/>
      <ellipse id="Ellipse_2" data-name="Ellipse 2" class="cls-12" cx="0.391" cy="0.398" rx="0.391" ry="0.398" transform="translate(317.956 465.158)"/>
      <ellipse id="Ellipse_3" data-name="Ellipse 3" class="cls-12" cx="0.391" cy="0.398" rx="0.391" ry="0.398" transform="translate(320.695 465.158)"/>
      <ellipse id="Ellipse_4" data-name="Ellipse 4" class="cls-12" cx="0.391" cy="0.398" rx="0.391" ry="0.398" transform="translate(323.435 465.158)"/>
      <ellipse id="Ellipse_5" data-name="Ellipse 5" class="cls-12" cx="0.391" cy="0.398" rx="0.391" ry="0.398" transform="translate(326.174 465.158)"/>
      <ellipse id="Ellipse_6" data-name="Ellipse 6" class="cls-12" cx="0.391" cy="0.398" rx="0.391" ry="0.398" transform="translate(309.739 468.343)"/>
      <ellipse id="Ellipse_7" data-name="Ellipse 7" class="cls-12" cx="0.391" cy="0.398" rx="0.391" ry="0.398" transform="translate(312.478 468.343)"/>
      <ellipse id="Ellipse_8" data-name="Ellipse 8" class="cls-12" cx="0.391" cy="0.398" rx="0.391" ry="0.398" transform="translate(315.217 468.343)"/>
      <ellipse id="Ellipse_9" data-name="Ellipse 9" class="cls-12" cx="0.391" cy="0.398" rx="0.391" ry="0.398" transform="translate(317.956 468.343)"/>
      <ellipse id="Ellipse_10" data-name="Ellipse 10" class="cls-12" cx="0.391" cy="0.398" rx="0.391" ry="0.398" transform="translate(320.695 468.343)"/>
      <ellipse id="Ellipse_11" data-name="Ellipse 11" class="cls-12" cx="0.391" cy="0.398" rx="0.391" ry="0.398" transform="translate(323.435 468.343)"/>
      <ellipse id="Ellipse_12" data-name="Ellipse 12" class="cls-12" cx="0.391" cy="0.398" rx="0.391" ry="0.398" transform="translate(326.174 468.343)"/>
      <ellipse id="Ellipse_13" data-name="Ellipse 13" class="cls-12" cx="0.391" cy="0.398" rx="0.391" ry="0.398" transform="translate(309.739 471.13)"/>
      <ellipse id="Ellipse_14" data-name="Ellipse 14" class="cls-12" cx="0.391" cy="0.398" rx="0.391" ry="0.398" transform="translate(312.478 471.13)"/>
      <ellipse id="Ellipse_15" data-name="Ellipse 15" class="cls-12" cx="0.391" cy="0.398" rx="0.391" ry="0.398" transform="translate(315.217 471.13)"/>
      <ellipse id="Ellipse_16" data-name="Ellipse 16" class="cls-12" cx="0.391" cy="0.398" rx="0.391" ry="0.398" transform="translate(317.956 471.13)"/>
      <ellipse id="Ellipse_17" data-name="Ellipse 17" class="cls-12" cx="0.391" cy="0.398" rx="0.391" ry="0.398" transform="translate(320.695 471.13)"/>
      <ellipse id="Ellipse_18" data-name="Ellipse 18" class="cls-12" cx="0.391" cy="0.398" rx="0.391" ry="0.398" transform="translate(323.435 471.13)"/>
      <ellipse id="Ellipse_19" data-name="Ellipse 19" class="cls-12" cx="0.391" cy="0.398" rx="0.391" ry="0.398" transform="translate(326.174 471.13)"/>
      <ellipse id="Ellipse_20" data-name="Ellipse 20" class="cls-12" cx="0.391" cy="0.398" rx="0.391" ry="0.398" transform="translate(309.739 474.316)"/>
      <ellipse id="Ellipse_21" data-name="Ellipse 21" class="cls-12" cx="0.391" cy="0.398" rx="0.391" ry="0.398" transform="translate(312.478 474.316)"/>
      <ellipse id="Ellipse_22" data-name="Ellipse 22" class="cls-12" cx="0.391" cy="0.398" rx="0.391" ry="0.398" transform="translate(315.217 474.316)"/>
      <ellipse id="Ellipse_23" data-name="Ellipse 23" class="cls-12" cx="0.391" cy="0.398" rx="0.391" ry="0.398" transform="translate(317.956 474.316)"/>
      <ellipse id="Ellipse_24" data-name="Ellipse 24" class="cls-12" cx="0.391" cy="0.398" rx="0.391" ry="0.398" transform="translate(320.695 474.316)"/>
    </g>
    <g id="chat_1_" data-name="chat (1)" transform="translate(1497.229 476.475)">
      <path id="Path_236" data-name="Path 236" class="cls-12" d="M9.392,24.226h5.1a.381.381,0,1,0,0-.761h-5.1a.381.381,0,1,0,0,.761Z" transform="translate(-5.469 -13.005)"/>
      <path id="Path_237" data-name="Path 237" class="cls-12" d="M19.594,29.465H9.392a.381.381,0,1,0,0,.761h10.2a.381.381,0,1,0,0-.761Z" transform="translate(-5.469 -16.721)"/>
      <path id="Path_238" data-name="Path 238" class="cls-12" d="M19.594,35.465H9.392a.381.381,0,1,0,0,.761h10.2a.381.381,0,1,0,0-.761Z" transform="translate(-5.469 -20.436)"/>
      <path id="Path_239" data-name="Path 239" class="cls-12" d="M21.217,2.492,7.82,2.465A2.3,2.3,0,0,0,5.493,4.723V6.673L2.327,6.68A2.3,2.3,0,0,0,0,8.938v8.049a2.3,2.3,0,0,0,2.327,2.257H4.709v3.807a.381.381,0,0,0,.251.355.4.4,0,0,0,.141.026.4.4,0,0,0,.29-.124L9.2,19.243l6.524-.026A2.3,2.3,0,0,0,18.05,16.96v-.043l2.064,2.2a.4.4,0,0,0,.29.124.4.4,0,0,0,.141-.026.381.381,0,0,0,.251-.355V15.056h.42A2.3,2.3,0,0,0,23.543,12.8V4.749A2.3,2.3,0,0,0,21.217,2.492ZM17.265,16.959a1.521,1.521,0,0,1-1.544,1.5l-6.7.027a.4.4,0,0,0-.289.124l-3.241,3.46v-3.2a.387.387,0,0,0-.392-.381H2.327a1.521,1.521,0,0,1-1.542-1.5V8.937a1.522,1.522,0,0,1,1.543-1.5l3.558-.007h0l9.836-.02a1.521,1.521,0,0,1,1.542,1.5v8.049ZM22.758,12.8a1.521,1.521,0,0,1-1.542,1.5H20.4a.387.387,0,0,0-.392.381v3.2L18.05,15.784V8.91a2.3,2.3,0,0,0-2.328-2.258l-9.444.019V4.722a1.521,1.521,0,0,1,1.541-1.5l13.4.027h0a1.521,1.521,0,0,1,1.542,1.5V12.8Z" transform="translate(0 0)"/>
    </g>
    <g id="ticket" transform="translate(1133.678 599) rotate(45)">
      <path id="Path_1159" data-name="Path 1159" class="cls-13" d="M24.659,7.3l-.3.3a2.18,2.18,0,0,1-1.844.733,2.908,2.908,0,0,1-3.007-3.007,2.18,2.18,0,0,1,.733-1.844l.3-.3L17.358,0,0,17.358l3.184,3.184.3-.3a2.18,2.18,0,0,1,1.844-.733,2.908,2.908,0,0,1,3.007,3.007,2.18,2.18,0,0,1-.733,1.844l-.3.3,3.184,3.184L27.844,10.486ZM8.5,24.647A2.961,2.961,0,0,0,9.2,22.512a3.781,3.781,0,0,0-3.866-3.866A2.963,2.963,0,0,0,3.2,19.34L1.215,17.358l10.13-10.13,1.414,1.414.607-.607L11.952,6.62l5.406-5.406L19.34,3.2a2.961,2.961,0,0,0-.693,2.135A3.781,3.781,0,0,0,22.512,9.2,2.963,2.963,0,0,0,24.647,8.5l1.982,1.982-5.406,5.406-1.414-1.414-.607.607L20.616,16.5l-10.13,10.13Z"/>
      <path id="Path_1160" data-name="Path 1160" class="cls-14" d="M33.425,23.033l-1.718-1.718.607-.607,1.718,1.718Z" transform="translate(-18.089 -11.814)"/>
      <path id="Path_1161" data-name="Path 1161" class="cls-14" d="M40.425,30.033l-1.718-1.718.607-.607,1.718,1.718Z" transform="translate(-22.082 -15.807)"/>
    </g>
    <g id="noun_840191_cc" transform="translate(1239.574 -351.7)">
      <path id="Path_335" data-name="Path 335" class="cls-15" d="M14.169,957.7a8.63,8.63,0,0,0-6.185,2.567,8.743,8.743,0,0,0,11.494,13.128l1.313,1.284-.2.2a.59.59,0,0,0,0,.817l7.847,7.847a.621.621,0,0,0,.817,0l2.071-2.071a.621.621,0,0,0,0-.817l-7.847-7.847a.621.621,0,0,0-.817,0l-.2.2L21.171,971.7a8.763,8.763,0,0,0-.758-11.494,9.107,9.107,0,0,0-6.243-2.509Zm0,1.167A7.585,7.585,0,1,1,8.8,961.084,7.577,7.577,0,0,1,14.169,958.867Zm0,3.209a.585.585,0,0,0-.583.583v.35a2.519,2.519,0,0,0-1.021.467,1.953,1.953,0,0,0-.729,1.517,1.706,1.706,0,0,0,.817,1.459,7.463,7.463,0,0,0,1.284.525c.525.2,1.371.408,1.4.933a.733.733,0,0,1-.292.613,1.485,1.485,0,0,1-.875.263,1.511,1.511,0,0,1-1.254-.7.636.636,0,0,0-.817-.2.628.628,0,0,0-.2.817,2.685,2.685,0,0,0,1.663,1.2v.379a.583.583,0,0,0,1.167,0v-.35a2.518,2.518,0,0,0,1.021-.467,1.953,1.953,0,0,0,.729-1.517,1.705,1.705,0,0,0-.817-1.458,7.448,7.448,0,0,0-1.284-.525c-.525-.2-1.371-.408-1.4-.9a.7.7,0,0,1,.292-.613,1.484,1.484,0,0,1,.875-.263,1.565,1.565,0,0,1,1.254.671.6.6,0,0,0,1.021-.613,2.65,2.65,0,0,0-1.663-1.167v-.379A.592.592,0,0,0,14.169,962.076Zm8.868,12.019,7,7-1.254,1.254-7-7,1.254-1.255Z"/>
    </g>
    <g id="statistics" transform="translate(1371 606)">
      <path id="Path_225" data-name="Path 225" class="cls-16" d="M25.585,23.511H2.489V.415a.415.415,0,0,0-.83,0v3.5H.415a.415.415,0,0,0,0,.83H1.66V7.837H.415a.415.415,0,1,0,0,.83H1.66v3.089H.415a.415.415,0,1,0,0,.83H1.66v3.089H.415a.415.415,0,0,0,0,.83H1.66v3.089H.415a.415.415,0,0,0,0,.83H1.66v3.5a.415.415,0,0,0,.415.415H8.206v1.245a.415.415,0,1,0,.83,0V24.34h9.589v1.245a.415.415,0,1,0,.83,0V24.34h6.131a.415.415,0,1,0,0-.83Z" transform="translate(0 0)"/>
      <path id="Path_226" data-name="Path 226" class="cls-16" d="M70.415,223.426a.415.415,0,0,0,.415-.415V213.33h3.5v9.681a.415.415,0,0,0,.83,0v-5.762h3.273v5.762a.415.415,0,0,0,.83,0v-6.177a.415.415,0,0,0-.415-.415H75.163v-3.5a.415.415,0,0,0-.415-.415H70.415a.415.415,0,0,0-.415.415v10.1A.415.415,0,0,0,70.415,223.426Z" transform="translate(-66.128 -200.745)"/>
      <path id="Path_227" data-name="Path 227" class="cls-16" d="M262.915,89.6a.415.415,0,0,0,.415-.415V71.663H266.6V89.181a.415.415,0,1,0,.83,0v-13.6h3.5v13.6a.415.415,0,0,0,.83,0V75.166a.415.415,0,0,0-.415-.415h-3.918v-3.5a.415.415,0,0,0-.415-.415h-4.1a.415.415,0,0,0-.415.415V89.181A.415.415,0,0,0,262.915,89.6Z" transform="translate(-247.979 -66.915)"/>
    </g>
  </g>
</svg>
