<svg xmlns="http://www.w3.org/2000/svg" viewBox="-14326 -13907.512 26 26">
  <defs>
    <style>
      .cls-1 {
        fill: #fff;
      }
    </style>
  </defs>
  <g id="placeholder" transform="translate(-14326 -13907.512)">
    <path id="Path_214" data-name="Path 214" class="cls-1" d="M26.033,18.067A3.033,3.033,0,1,0,23,15.033,3.037,3.037,0,0,0,26.033,18.067Zm0-5.2a2.167,2.167,0,1,1-2.167,2.167A2.169,2.169,0,0,1,26.033,12.867Z" transform="translate(-13.033 -6.8)"/>
    <path id="Path_215" data-name="Path 215" class="cls-1" d="M18.956,23.728l6.648-9.6a9.469,9.469,0,0,0-.772-11.692,8.309,8.309,0,0,0-11.752,0A9.466,9.466,0,0,0,12.3,14.113ZM13.693,3.047a7.443,7.443,0,0,1,10.527,0A8.555,8.555,0,0,1,24.9,13.62l-5.945,8.586L13,13.607A8.552,8.552,0,0,1,13.693,3.047Z" transform="translate(-6.033 0)"/>
    <path id="Path_216" data-name="Path 216" class="cls-1" d="M18.251,43a.433.433,0,0,0-.1.861c4.557.536,6.984,1.982,6.984,2.82,0,1.176-4.616,2.817-12.133,2.817S.867,47.859.867,46.683c0-.838,2.427-2.283,6.984-2.82a.433.433,0,0,0-.1-.861C3.187,43.54,0,45.053,0,46.683c0,1.83,4.465,3.683,13,3.683s13-1.853,13-3.683C26,45.053,22.813,43.54,18.251,43Z" transform="translate(0 -24.366)"/>
  </g>
</svg>
