<svg xmlns="http://www.w3.org/2000/svg" viewBox="-13888 -14140 12.689 17.233">
  <defs>
    <style>
      .cls-1 {
        fill: #F1464A;
      }
    </style>
  </defs>
  <g id="placeholder-filled-point" transform="translate(-13900.883 -14140)">
    <path id="Path_257" data-name="Path 257" class="cls-1" d="M19.227,0a6.352,6.352,0,0,0-6.344,6.345,6.189,6.189,0,0,0,.555,2.59,40,40,0,0,0,5.522,8.176.353.353,0,0,0,.535,0,40.024,40.024,0,0,0,5.522-8.176,6.186,6.186,0,0,0,.555-2.59A6.353,6.353,0,0,0,19.227,0Zm0,9.64a3.3,3.3,0,1,1,3.3-3.3A3.3,3.3,0,0,1,19.227,9.64Z" transform="translate(0)"/>
  </g>
</svg>
