<svg xmlns="http://www.w3.org/2000/svg" viewBox="-13779.257 -18898 96.634 105.688">
  <defs>
    <style>
      .cls-1 {
        fill: #ee3638;
      }
    </style>
  </defs>
  <g id="noun_1476805_cc" transform="translate(-13779.256 -18898.001)">
    <g id="Group" transform="translate(0 0)">
      <path id="Compound_Path" data-name="Compound Path" class="cls-1" d="M105.834,60.12,80.965,46.738l-13.974,7.7A35.882,35.882,0,0,0,56.333,48.87a23.211,23.211,0,1,0-22.5,0A36,36,0,0,0,9.2,82.976V102.99H67.109a33.633,33.633,0,0,0,9.711,6.395l3.908,1.658,4.382-1.895a33.514,33.514,0,0,0,20.724-30.909ZM26.608,28.5a18.474,18.474,0,1,1,5.453,13.105A18.474,18.474,0,0,1,26.608,28.5ZM13.819,82.976A31.146,31.146,0,0,1,62.254,56.923l-5.684,3.2V78.595a33.633,33.633,0,0,0,6.395,19.659H13.937Zm87.16-4.737a28.777,28.777,0,0,1-17.764,26.646l-2.487,1.066L78.6,105a28.9,28.9,0,0,1-17.29-26.409V62.962l19.54-10.777,20.132,10.777Z" transform="translate(-9.2 -5.356)"/>
      <path id="Path" class="cls-1" d="M62.871,64.963,59.2,68.042l7.579,8.763L68.2,78.582h.118l1.776-1.54L85.609,64.371,82.648,60.7,68.792,71.95Z" transform="translate(0.012 4.841)"/>
    </g>
  </g>
</svg>
