<svg xmlns="http://www.w3.org/2000/svg" viewBox="0 0 12 12">
  <defs>
    <style>
      .cls-1 {
        fill: #f70;
      }
    </style>
  </defs>
  <path id="Marketing_Globe_Location" data-name="Marketing / Globe Location" class="cls-1" d="M1.8,1.8A5.447,5.447,0,0,1,6,0a5.447,5.447,0,0,1,4.2,1.8A5.447,5.447,0,0,1,12,6a5.447,5.447,0,0,1-1.8,4.2A5.447,5.447,0,0,1,6,12a5.447,5.447,0,0,1-4.2-1.8A5.988,5.988,0,0,1,0,6,5.447,5.447,0,0,1,1.8,1.8Zm5,9a2.457,2.457,0,0,0,1.5-.9A4.368,4.368,0,0,0,9,7.8a1.656,1.656,0,0,0-.5-1.2A1.76,1.76,0,0,0,7.2,6h-1a2.92,2.92,0,0,1-.9-.2A.908.908,0,0,1,5,5.1a.52.52,0,0,1,.2-.4.758.758,0,0,1,.4-.2.683.683,0,0,1,.5.3c.2.1.3.2.4.2a.6.6,0,0,0,.4-.1A.6.6,0,0,0,7,4.5a1.591,1.591,0,0,0-.5-1A4.136,4.136,0,0,0,7,1.6a.215.215,0,0,0-.2-.2A3.091,3.091,0,0,0,6,1.2,5,5,0,0,0,3.4,2a2.518,2.518,0,0,0-.9,2,2.56,2.56,0,0,0,.8,1.9,2.732,2.732,0,0,0,1.9.8h0v.4a1.284,1.284,0,0,0,.4,1,1.456,1.456,0,0,0,.9.6v1.8c0,.1,0,.1.1.2S6.7,10.8,6.8,10.8Z"/>
</svg>
