<svg xmlns="http://www.w3.org/2000/svg" viewBox="-19883.904 -16819.465 67.828 74.182">
  <defs>
    <style>
      .cls-1, .cls-2 {
        fill: #ee3638;
      }

      .cls-2 {
        stroke: #ee3638;
        stroke-width: 1.5px;
      }
    </style>
  </defs>
  <g id="Group_385" data-name="Group 385" transform="translate(-19883.904 -16819.465)">
    <g id="noun_1476805_cc">
      <path id="Compound_Path" data-name="Compound Path" class="cls-1" d="M77.027,43.795,59.571,34.4l-9.808,5.4A25.185,25.185,0,0,0,42.282,35.9a16.292,16.292,0,1,0-15.793,0A25.269,25.269,0,0,0,9.2,59.837V73.885H49.846a23.606,23.606,0,0,0,6.816,4.489L59.4,79.537l3.075-1.33A23.523,23.523,0,0,0,77.027,56.512ZM21.419,21.6a12.967,12.967,0,1,1,3.827,9.2,12.967,12.967,0,0,1-3.827-9.2ZM12.442,59.837a21.861,21.861,0,0,1,34-18.287l-3.99,2.244V56.762a23.607,23.607,0,0,0,4.489,13.8H12.525Zm61.177-3.325a20.2,20.2,0,0,1-12.468,18.7l-1.746.748-1.5-.665A20.282,20.282,0,0,1,45.773,56.762V45.79l13.715-7.564L73.619,45.79Z" transform="translate(-9.2 -5.356)"/>
    </g>
    <g id="noun_314980_cc" transform="translate(41.78 41.561)">
      <g id="Group_384" data-name="Group 384" transform="translate(0)">
        <path id="Path_402" data-name="Path 402" class="cls-2" d="M15.29,19.343a.563.563,0,0,1-.238-.079L9.785,15.422,4.518,19.264a.361.361,0,0,1-.475,0,.44.44,0,0,1-.158-.436L5.9,12.61.637,8.808A.389.389,0,0,1,.874,8.1H7.409l1.98-6.218a.393.393,0,0,1,.4-.277.431.431,0,0,1,.4.277l1.98,6.178H18.7a.477.477,0,0,1,.4.277.376.376,0,0,1-.158.436L13.667,12.61l2.02,6.218a.376.376,0,0,1-.158.436A.563.563,0,0,1,15.29,19.343ZM9.785,14.551a.563.563,0,0,1,.238.079l4.515,3.287L12.8,12.61a.376.376,0,0,1,.158-.436l4.515-3.287H11.884a.477.477,0,0,1-.4-.277l-1.7-5.347L8.043,8.571a.393.393,0,0,1-.4.277H2.1l4.515,3.287a.4.4,0,0,1,.158.436L5.033,17.917,9.548,14.63A.563.563,0,0,1,9.785,14.551Z" transform="translate(-0.464 -1.6)"/>
      </g>
    </g>
  </g>
</svg>
