<svg xmlns="http://www.w3.org/2000/svg" viewBox="-6984 -15305 26 26">
  <defs>
    <style>
      .cls-1 {
        fill: #fff;
      }
    </style>
  </defs>
  <path id="home" class="cls-1" d="M26.04,11.864,22.148,8.273V2.39H17.665V4.137L13.183,0,.326,11.864a.444.444,0,0,0-.023.63.451.451,0,0,0,.634.023l1.488-1.373V26H23.942V11.143l1.488,1.373a.447.447,0,1,0,.61-.653ZM18.562,3.281h2.69V7.446l-2.69-2.482ZM10.493,25.109V15.726a.419.419,0,0,1,.42-.417h4.539a.419.419,0,0,1,.42.417v9.383H10.493Zm12.552,0H16.769V15.726a1.314,1.314,0,0,0-1.317-1.308H10.913A1.314,1.314,0,0,0,9.6,15.726v9.383H3.32V10.316l9.862-9.1,6.4,5.907,2.564,2.366h0l.9.827Z" transform="translate(-6984.183 -15305)"/>
</svg>
