<svg xmlns="http://www.w3.org/2000/svg" viewBox="0 0 125 125">
  <defs>
    <style>
      .cls-1 {
        fill: none;
      }

      .cls-2, .cls-4 {
        fill: #f70;
      }

      .cls-3, .cls-4 {
        stroke: none;
      }
    </style>
  </defs>
  <g id="upload_cloud_empty" data-name="upload cloud empty" transform="translate(-7218.578 -2511)">
    <g id="Group_757" data-name="Group 757" transform="translate(7218.578 2510.578)">
      <g id="Path_398" data-name="Path 398" class="cls-1" transform="translate(0 0.422)">
        <path class="cls-3" d="M62.5,0A62.5,62.5,0,1,1,0,62.5,62.5,62.5,0,0,1,62.5,0Z"/>
        <path class="cls-4" d="M 62.5 122 C 70.53376007080078 122 78.32563781738281 120.4272537231445 85.65916442871094 117.3254165649414 C 89.18414306640625 115.8344879150391 92.58419799804688 113.9889602661133 95.76493072509766 111.8401107788086 C 98.91619873046875 109.7111663818359 101.8796157836914 107.2660903930664 104.5728530883789 104.5728530883789 C 107.2660903930664 101.8796157836914 109.7111663818359 98.91619873046875 111.8401107788086 95.76493072509766 C 113.9889602661133 92.58419799804688 115.8344879150391 89.18414306640625 117.3254165649414 85.65916442871094 C 120.4272537231445 78.32563781738281 122 70.53376007080078 122 62.5 C 122 54.46623611450195 120.4272537231445 46.67436218261719 117.3254165649414 39.34083557128906 C 115.8344879150391 35.81587219238281 113.9889602661133 32.41579818725586 111.8401107788086 29.2350902557373 C 109.7111663818359 26.08381843566895 107.2660903930664 23.12039947509766 104.5728530883789 20.42714500427246 C 101.8796157836914 17.73390960693359 98.91619873046875 15.28885459899902 95.76493072509766 13.15989112854004 C 92.58419799804688 11.01103591918945 89.18414306640625 9.165509223937988 85.65916442871094 7.674582004547119 C 78.32563781738281 4.572745323181152 70.53376007080078 3 62.5 3 C 54.46623611450195 3 46.67436218261719 4.572745323181152 39.34083557128906 7.674582004547119 C 35.81587219238281 9.165509223937988 32.41579818725586 11.01103591918945 29.2350902557373 13.15989112854004 C 26.08381843566895 15.28885459899902 23.12039947509766 17.73390960693359 20.42714500427246 20.42714500427246 C 17.73390960693359 23.12039947509766 15.28885459899902 26.08381843566895 13.15989112854004 29.2350902557373 C 11.01103591918945 32.41579818725586 9.165509223937988 35.81587219238281 7.674582004547119 39.34083557128906 C 4.572745323181152 46.67436218261719 3 54.46623611450195 3 62.5 C 3 70.53376007080078 4.572745323181152 78.32563781738281 7.674582004547119 85.65916442871094 C 9.165509223937988 89.18414306640625 11.01103591918945 92.58419799804688 13.15989112854004 95.76493072509766 C 15.28885459899902 98.91619873046875 17.73390960693359 101.8796157836914 20.42714500427246 104.5728530883789 C 23.12039947509766 107.2660903930664 26.08381843566895 109.7111663818359 29.2350902557373 111.8401107788086 C 32.41579818725586 113.9889602661133 35.81587219238281 115.8344879150391 39.34083557128906 117.3254165649414 C 46.67436218261719 120.4272537231445 54.46623611450195 122 62.5 122 M 62.5 125 C 27.98221778869629 125 0 97.01779937744141 0 62.5 C 0 27.98221778869629 27.98221778869629 0 62.5 0 C 97.01779937744141 0 125 27.98221778869629 125 62.5 C 125 97.01779937744141 97.01779937744141 125 62.5 125 Z"/>
      </g>
    </g>
    <g id="upload_1_" data-name="upload (1)" transform="translate(7273.257 2527.904)">
      <g id="Group_661" data-name="Group 661" transform="translate(-20 18.4)">
        <path id="Path_476" data-name="Path 476" class="cls-2" d="M46.1,32.524a17.049,17.049,0,0,0-5.117-9.685A16.018,16.018,0,0,0,21,21.107a16.659,16.659,0,0,0-5.327,5.787,9.122,9.122,0,0,0-1.725-.168A9.147,9.147,0,0,0,4.966,36a10.454,10.454,0,0,0,.187,1.925A13.043,13.043,0,0,0,0,48.332a14.055,14.055,0,0,0,3.392,9.131,11.977,11.977,0,0,0,8.393,4.355H21.9a1.625,1.625,0,0,0,0-3.248H11.924c-4.767-.3-8.777-4.981-8.777-10.25a9.7,9.7,0,0,1,4.628-8.3,1.663,1.663,0,0,0,.688-1.973,6.063,6.063,0,0,1-.35-2.069,5.946,5.946,0,0,1,5.84-6.027,5.58,5.58,0,0,1,1.993.361,1.562,1.562,0,0,0,1.97-.83,13.18,13.18,0,0,1,25.213,4.512,1.6,1.6,0,0,0,1.306,1.444c5.187.914,9.1,5.859,9.1,11.5,0,5.979-4.558,11.176-10.176,11.622H34.771a1.625,1.625,0,0,0,0,3.248h8.766a13.789,13.789,0,0,0,9.348-4.764,15.254,15.254,0,0,0,3.8-10.106C56.673,40.188,52.209,34.184,46.1,32.524Z" transform="translate(0 -18.4)"/>
        <path id="Path_477" data-name="Path 477" class="cls-2" d="M177.572,196.781a1.656,1.656,0,0,0,0-2.3l-8.334-8.6a1.568,1.568,0,0,0-1.107-.481,1.52,1.52,0,0,0-1.107.481l-8.334,8.6a1.656,1.656,0,0,0,0,2.3,1.56,1.56,0,0,0,1.107.481,1.512,1.512,0,0,0,1.107-.481l5.653-5.835v26.816a1.574,1.574,0,1,0,3.147,0V190.946l5.653,5.835A1.521,1.521,0,0,0,177.572,196.781Z" transform="translate(-139.782 -165.309)"/>
      </g>
    </g>
  </g>
</svg>
