<svg xmlns="http://www.w3.org/2000/svg" viewBox="5204 6525.61 78.197 72.28">
  <defs>
    <style>
      .cls-1 {
        opacity: 0.64;
      }
    </style>
  </defs>
  <g id="upload_1_" data-name="upload (1)" class="cls-1" transform="translate(5204 6507.21)">
    <g id="Group_661" data-name="Group 661" transform="translate(0 18.4)">
      <path id="Path_476" data-name="Path 476" d="M63.6,37.278a22.651,22.651,0,0,0-41.969-7.525,12.976,12.976,0,0,0-2.38-.225,12.414,12.414,0,0,0-12.4,12.4A13.552,13.552,0,0,0,7.107,44.5,17.252,17.252,0,0,0,0,58.407a18.444,18.444,0,0,0,4.679,12.2,16.7,16.7,0,0,0,11.578,5.821H30.214a2.171,2.171,0,1,0,0-4.342H16.45c-6.577-.4-12.108-6.657-12.108-13.7a12.888,12.888,0,0,1,6.384-11.1,2.189,2.189,0,0,0,.949-2.637,7.877,7.877,0,0,1-.482-2.766,8.07,8.07,0,0,1,8.056-8.056,7.918,7.918,0,0,1,2.75.482,2.181,2.181,0,0,0,2.718-1.11A18.308,18.308,0,0,1,59.5,39.24a2.168,2.168,0,0,0,1.8,1.93A15.555,15.555,0,0,1,73.856,56.542c0,7.992-6.287,14.938-14.038,15.533H47.967a2.171,2.171,0,1,0,0,4.342H60.059a19.238,19.238,0,0,0,12.9-6.368A20.014,20.014,0,0,0,63.6,37.278Z" transform="translate(0 -18.4)"/>
      <path id="Path_477" data-name="Path 477" d="M184.914,200.612a2.164,2.164,0,0,0,0-3.071l-11.5-11.5a2.2,2.2,0,0,0-1.528-.643,2.129,2.129,0,0,0-1.528.643l-11.5,11.5a2.179,2.179,0,0,0,1.528,3.715,2.118,2.118,0,0,0,1.528-.643l7.8-7.8v35.843a2.171,2.171,0,1,0,4.342,0V192.813l7.8,7.8A2.145,2.145,0,0,0,184.914,200.612Z" transform="translate(-132.782 -158.546)"/>
    </g>
  </g>
</svg>
