<svg xmlns="http://www.w3.org/2000/svg" viewBox="0 0 15 15">
  <defs>
    <style>
      .cls-1 {
        fill: #ee3638;
      }
    </style>
  </defs>
  <g id="noun_1065165_cc" transform="translate(-491.5 -78.5)">
    <g id="Group_449" data-name="Group 449" transform="translate(225.5 -258.501)">
      <path id="Path_1082" data-name="Path 1082" class="cls-1" d="M21.4,972.125a6.429,6.429,0,0,0-1.9,2.967c.027,2.15,2.054,4.811,4.49,7.244s5.229,4.808,7.27,4.5a6.478,6.478,0,0,0,2.988-1.91,1.03,1.03,0,0,0-.007-1.358l-2.075-2.071a1.373,1.373,0,0,0-1.508-.116l-1.4,1.022c-.745.635-2.316-.923-3.358-1.964s-2.627-2.448-1.958-3.359l1.021-1.391a1.368,1.368,0,0,0-.1-1.484L22.8,972.14a1.042,1.042,0,0,0-1.4-.014Z" transform="translate(246.5 -634.862)"/>
    </g>
  </g>
</svg>
