<svg xmlns="http://www.w3.org/2000/svg" viewBox="-12181 -13592 32 32">
  <defs>
    <style>
      .cls-1 {
        fill: #fff;
      }
    </style>
  </defs>
  <g id="settings" transform="translate(-12181 -13592)">
    <path id="Path_223" data-name="Path 223" class="cls-1" d="M30.353,12.444H27.359a1.149,1.149,0,0,1-.813-1.962l2.117-2.116a1.649,1.649,0,0,0,0-2.331l-2.7-2.7a1.687,1.687,0,0,0-2.331,0L21.518,5.454a1.149,1.149,0,0,1-1.962-.812V1.647A1.649,1.649,0,0,0,17.908,0H14.092a1.649,1.649,0,0,0-1.647,1.647V4.641a1.149,1.149,0,0,1-1.962.812L8.366,3.337a1.687,1.687,0,0,0-2.331,0l-2.7,2.7a1.649,1.649,0,0,0,0,2.331l2.117,2.116a1.149,1.149,0,0,1-.813,1.962H1.647A1.649,1.649,0,0,0,0,14.092v3.816a1.649,1.649,0,0,0,1.647,1.648H4.641a1.149,1.149,0,0,1,.813,1.962L3.337,23.634a1.649,1.649,0,0,0,0,2.331l2.7,2.7a1.686,1.686,0,0,0,2.331,0l2.116-2.117a1.149,1.149,0,0,1,1.962.813v2.994A1.649,1.649,0,0,0,14.092,32h3.816a1.649,1.649,0,0,0,1.647-1.647V27.359a1.149,1.149,0,0,1,1.962-.813l2.116,2.117a1.687,1.687,0,0,0,2.331,0l2.7-2.7a1.649,1.649,0,0,0,0-2.331l-2.117-2.116a1.149,1.149,0,0,1,.814-1.962h2.994A1.649,1.649,0,0,0,32,17.908V14.092A1.649,1.649,0,0,0,30.353,12.444Zm.462,5.464a.463.463,0,0,1-.462.462H27.359a2.335,2.335,0,0,0-1.651,3.986l2.117,2.116a.462.462,0,0,1,0,.654l-2.7,2.7a.462.462,0,0,1-.654,0l-2.116-2.117a2.335,2.335,0,0,0-3.986,1.651v2.994a.463.463,0,0,1-.462.462H14.092a.463.463,0,0,1-.462-.462V27.359A2.3,2.3,0,0,0,12.188,25.2a2.362,2.362,0,0,0-.908-.184,2.3,2.3,0,0,0-1.636.69L7.528,27.824a.462.462,0,0,1-.654,0l-2.7-2.7a.462.462,0,0,1,0-.654l2.117-2.116A2.334,2.334,0,0,0,4.641,18.37H1.647a.463.463,0,0,1-.462-.462V14.092a.463.463,0,0,1,.462-.462H4.641A2.335,2.335,0,0,0,6.292,9.644L4.175,7.528a.462.462,0,0,1,0-.654l2.7-2.7a.462.462,0,0,1,.654,0L9.644,6.292a2.335,2.335,0,0,0,3.986-1.65V1.647a.463.463,0,0,1,.462-.462h3.816a.463.463,0,0,1,.463.462V4.641a2.335,2.335,0,0,0,3.986,1.651l2.116-2.116a.462.462,0,0,1,.654,0l2.7,2.7a.462.462,0,0,1,0,.654L25.708,9.644a2.335,2.335,0,0,0,1.651,3.986h2.994a.462.462,0,0,1,.462.462Z"/>
    <path id="Path_224" data-name="Path 224" class="cls-1" d="M23.333,18a5.333,5.333,0,1,0,5.333,5.333A5.339,5.339,0,0,0,23.333,18Zm0,9.481a4.148,4.148,0,1,1,4.148-4.148A4.153,4.153,0,0,1,23.333,27.481Z" transform="translate(-7.333 -7.333)"/>
  </g>
</svg>
