<svg xmlns="http://www.w3.org/2000/svg" viewBox="-12108 -13590 26.444 28.53">
  <defs>
    <style>
      .cls-1 {
        fill: #4d4d4d;
      }
    </style>
  </defs>
  <g id="_126467" data-name="126467" transform="translate(-12125.219 -13590)">
    <g id="Group_1" data-name="Group 1" transform="translate(17.219)">
      <path id="Path_209" data-name="Path 209" class="cls-1" d="M29.958,26.9H22.517a3.668,3.668,0,0,1-3.663-3.663V5.3a3.668,3.668,0,0,1,3.663-3.663h7.562a.817.817,0,0,0,0-1.635H22.517a5.3,5.3,0,0,0-5.3,5.3V23.232a5.3,5.3,0,0,0,5.3,5.3h7.441a.817.817,0,0,0,0-1.635Z" transform="translate(-17.219)"/>
      <path id="Path_210" data-name="Path 210" class="cls-1" d="M140.47,141.761l-5.2-5.2a.818.818,0,1,0-1.156,1.156l3.8,3.8H121.336a.817.817,0,1,0,0,1.635H137.92l-3.8,3.8a.82.82,0,0,0,.575,1.4.8.8,0,0,0,.575-.242l5.2-5.2A.817.817,0,0,0,140.47,141.761Z" transform="translate(-114.264 -128.071)"/>
    </g>
  </g>
</svg>
