<svg xmlns="http://www.w3.org/2000/svg" viewBox="-6984 -15224 27.161 24.897">
  <defs>
    <style>
      .cls-1 {
        fill: #fff;
      }
    </style>
  </defs>
  <path id="users" class="cls-1" d="M24.9,21.915l-4.324-2.162a1.191,1.191,0,0,1-.661-1.071V17.152c.1-.127.213-.271.325-.431A10.36,10.36,0,0,0,21.581,14.1a1.8,1.8,0,0,0,1.053-1.637V10.648a1.805,1.805,0,0,0-.453-1.188V7.052A4.058,4.058,0,0,0,21.234,4.1a5.7,5.7,0,0,0-4.485-1.6,5.7,5.7,0,0,0-4.485,1.6,3.932,3.932,0,0,0-.934,2.175,5.88,5.88,0,0,0-2.729-.6c-4.7,0-4.977,4.008-4.979,4.074v2.073a1.576,1.576,0,0,0-.453,1.055v1.564a1.615,1.615,0,0,0,.593,1.252,6.938,6.938,0,0,0,1.65,2.845v1.242a.983.983,0,0,1-.53.867L1.87,22.528A3.587,3.587,0,0,0,0,25.679V27.4H27.161v-1.83A4.062,4.062,0,0,0,24.9,21.915ZM6.338,25.479v1.013H.905v-.813A2.7,2.7,0,0,1,2.327,23.31l3.011-1.889a1.876,1.876,0,0,0,.978-1.648V18.147l-.144-.134a6.03,6.03,0,0,1-1.57-2.7l-.041-.179-.155-.1a.719.719,0,0,1-.333-.6V12.87a.791.791,0,0,1,.3-.531l.149-.134V9.769c.008-.13.244-3.2,4.075-3.2a4.713,4.713,0,0,1,2.716.744V9.46a1.805,1.805,0,0,0-.453,1.188v1.811a1.82,1.82,0,0,0,.046.4c.012.053.037.1.053.151a1.788,1.788,0,0,0,.08.226v0a1.814,1.814,0,0,0,.5.623l.007.024c.027.1.056.207.086.308l.037.118c.006.021.014.042.021.063.016.049.031.1.048.145.027.079.056.161.089.25.014.037.029.071.044.107.037.095.074.186.113.277.01.022.018.045.027.067l.025.057c.012.026.024.05.036.076.044.1.088.191.133.281l.021.045c.029.057.057.11.086.164.049.093.1.181.145.266l.07.122c.065.111.127.214.187.309l.038.061c.11.17.2.307.283.415l.057.077.032.044v1.5a1.2,1.2,0,0,1-.623,1.05l-1.2.653-.209-.019-.085.179L8.466,21.893A4.084,4.084,0,0,0,6.338,25.479Zm19.918,1.013H7.243V25.479A3.176,3.176,0,0,1,8.9,22.689l4.038-2.2a2.1,2.1,0,0,0,1.1-1.846V16.821h0l-.088-.105-.017-.02s-.029-.035-.075-.1l-.009-.011c-.024-.031-.052-.069-.084-.114v0c-.067-.094-.152-.215-.246-.362l-.006-.01c-.044-.069-.091-.145-.139-.225l-.011-.018c-.1-.172-.211-.366-.319-.581h0c-.057-.115-.115-.237-.171-.363h0l-.024-.053h0c-.025-.057-.05-.116-.075-.177l-.027-.068c-.024-.059-.048-.119-.073-.187-.046-.123-.09-.252-.131-.384l-.025-.081-.009-.028c-.043-.143-.083-.289-.118-.44l-.041-.179-.154-.1a.9.9,0,0,1-.419-.759V10.648a.893.893,0,0,1,.3-.668l.149-.134V6.867l-.012-.01A3.133,3.133,0,0,1,12.945,4.7a4.862,4.862,0,0,1,3.8-1.29,4.874,4.874,0,0,1,3.8,1.28,3.186,3.186,0,0,1,.735,2.282l0,2.879.149.135a.892.892,0,0,1,.3.667v1.811a.9.9,0,0,1-.644.86l-.225.069-.072.224A9.477,9.477,0,0,1,19.5,16.2a5.956,5.956,0,0,1-.379.488l-.113.129v1.867a2.091,2.091,0,0,0,1.162,1.88L24.5,22.724a3.161,3.161,0,0,1,1.757,2.843Z" transform="translate(-6984 -15226.5)"/>
</svg>
