<svg xmlns="http://www.w3.org/2000/svg" viewBox="0 0 25.411 30.939">
  <defs>
    <style>
      .cls-1, .cls-2 {
        fill: #000;
      }

      .cls-1 {
        stroke: #000;
        stroke-width: 0.2px;
      }

      .cls-2 {
        font-size: 18px;
        font-family: Montserrat-Regular, Montserrat;
        letter-spacing: 0.03em;
        opacity: 0.92;
      }
    </style>
  </defs>
  <g id="Btn_add_new_franchisee_icon" data-name="Btn/add new franchisee icon" transform="translate(10441.423 21502.835)">
    <g id="profile_1_" data-name="profile (1)" transform="translate(-10441.323 -21489.377)">
      <path id="Path_1109" data-name="Path 1109" class="cls-1" d="M134.871,23.168a4.877,4.877,0,1,0-4.884-4.884A4.885,4.885,0,0,0,134.871,23.168Zm0-8.48a3.6,3.6,0,1,1-3.6,3.6A3.606,3.606,0,0,1,134.871,14.688Z" transform="translate(-125.777 -13.415)"/>
      <path id="Path_1110" data-name="Path 1110" class="cls-1" d="M.644,347.7H17.6a.639.639,0,0,0,.644-.644,6.135,6.135,0,0,0-6.128-6.128H6.128A6.135,6.135,0,0,0,0,347.054.639.639,0,0,0,.644,347.7Zm5.483-5.483H12.12a4.836,4.836,0,0,1,4.794,4.2H1.333A4.849,4.849,0,0,1,6.128,342.214Z" transform="translate(0 -330.319)"/>
    </g>
    <text id="New_Account" data-name="New Account" class="cls-2" transform="translate(-10421.012 -21485.836)"><tspan x="-4.446" y="0">+</tspan></text>
  </g>
</svg>
