<svg xmlns="http://www.w3.org/2000/svg" viewBox="0 0 25.329 25.301">
  <defs>
    <style>
      .cls-1 {
        fill: #000;
        stroke: #000;
        stroke-width: 0.3px;
      }
    </style>
  </defs>
  <g id="Btn_Large_Checklist_icon" data-name="Btn/Large/Checklist icon" transform="translate(0.151 0.15)">
    <path id="Path_337" data-name="Path 337" class="cls-1" d="M14.815,13.164H25.929a.582.582,0,1,0,0-1.164H14.815C13.6,12,12,12.262,12,14.474V31.645c0,2.212,1.6,2.474,2.815,2.474H31.708c1.215,0,2.815-.262,2.815-2.474V19.276a.593.593,0,0,0-1.185,0V31.645c0,.9-.237,1.31-1.63,1.31H14.815c-1.393,0-1.63-.407-1.63-1.31V14.474C13.185,13.572,13.423,13.164,14.815,13.164Z" transform="translate(-12 -9.119)"/>
    <path id="Path_338" data-name="Path 338" class="cls-1" d="M51.252,2.1h-.207a.71.71,0,0,0-.326.175l-4.09,4.016-8.506,8.295a.69.69,0,0,0-.178.32l-.563,3.551a.567.567,0,0,0,.563.669h.089l3.438-.437h.119a.524.524,0,0,0,.356-.116c.03-.029.059-.029.059-.058a.029.029,0,0,0,.03-.029L54.66,6.145a.69.69,0,0,0,.178-.32,3.068,3.068,0,0,0-1.185-2.532A3.535,3.535,0,0,0,51.252,2.1ZM38.775,17.938c-.119-.116.119.058,0,0l.237-2.217a3.113,3.113,0,0,1,1.215.815,2.789,2.789,0,0,1,.711,1.048l-2.163.355C38.686,17.821,38.894,18.054,38.775,17.938Zm3.2-1a4.682,4.682,0,0,0-.889-1.251,5.321,5.321,0,0,0-1.423-.99l7.794-7.567,3.912-3.871a2.694,2.694,0,0,1,1.423.815,2.865,2.865,0,0,1,.859,1.4Z" transform="translate(-29.854 -2.1)"/>
  </g>
</svg>
